<mxfile host="app.diagrams.net" modified="2020-12-15T08:56:57.984Z" agent="5.0 (Macintosh; Intel Mac OS X 11_0_1) AppleWebKit/537.36 (KHTML, like Gecko) Chrome/87.0.4280.88 Safari/537.36" etag="nAUWYTXD5gUPFhGqDImw" version="14.0.1" type="github">
  <diagram id="R2lEEEUBdFMjLlhIrx00" name="Page-1">
    <mxGraphModel dx="1261" dy="785" grid="1" gridSize="10" guides="1" tooltips="1" connect="1" arrows="1" fold="1" page="1" pageScale="1" pageWidth="850" pageHeight="1100" math="0" shadow="0" extFonts="Permanent Marker^https://fonts.googleapis.com/css?family=Permanent+Marker">
      <root>
        <mxCell id="0" />
        <mxCell id="1" parent="0" />
        <mxCell id="_5cwRUb4suJWPlaSnPq4-1" value="客户端" style="swimlane;whiteSpace=wrap" parent="1" vertex="1">
          <mxGeometry x="100" y="230" width="280" height="570" as="geometry" />
        </mxCell>
        <mxCell id="_5cwRUb4suJWPlaSnPq4-2" value="" style="ellipse;shape=startState;fillColor=#000000;strokeColor=#ff0000;" parent="_5cwRUb4suJWPlaSnPq4-1" vertex="1">
          <mxGeometry x="100" y="40" width="30" height="30" as="geometry" />
        </mxCell>
        <mxCell id="_5cwRUb4suJWPlaSnPq4-3" value="" style="edgeStyle=elbowEdgeStyle;elbow=horizontal;verticalAlign=bottom;endArrow=open;endSize=8;strokeColor=#FF0000;endFill=1;rounded=0" parent="_5cwRUb4suJWPlaSnPq4-1" source="_5cwRUb4suJWPlaSnPq4-2" target="_5cwRUb4suJWPlaSnPq4-4" edge="1">
          <mxGeometry x="100" y="40" as="geometry">
            <mxPoint x="115" y="110" as="targetPoint" />
          </mxGeometry>
        </mxCell>
        <mxCell id="_5cwRUb4suJWPlaSnPq4-4" value="处理toast数据" style="" parent="_5cwRUb4suJWPlaSnPq4-1" vertex="1">
          <mxGeometry x="60" y="110" width="110" height="50" as="geometry" />
        </mxCell>
        <mxCell id="_5cwRUb4suJWPlaSnPq4-6" value="" style="endArrow=open;strokeColor=#FF0000;endFill=1;rounded=0;entryX=0.5;entryY=0;entryDx=0;entryDy=0;" parent="_5cwRUb4suJWPlaSnPq4-1" source="_5cwRUb4suJWPlaSnPq4-4" target="_5cwRUb4suJWPlaSnPq4-39" edge="1">
          <mxGeometry relative="1" as="geometry">
            <mxPoint x="115" y="200" as="targetPoint" />
          </mxGeometry>
        </mxCell>
        <mxCell id="_5cwRUb4suJWPlaSnPq4-7" value="丢弃" style="" parent="_5cwRUb4suJWPlaSnPq4-1" vertex="1">
          <mxGeometry x="60" y="325" width="110" height="50" as="geometry" />
        </mxCell>
        <mxCell id="_5cwRUb4suJWPlaSnPq4-8" value="" style="endArrow=open;strokeColor=#FF0000;endFill=1;rounded=0" parent="_5cwRUb4suJWPlaSnPq4-1" target="_5cwRUb4suJWPlaSnPq4-7" edge="1">
          <mxGeometry relative="1" as="geometry">
            <mxPoint x="115" y="270" as="sourcePoint" />
          </mxGeometry>
        </mxCell>
        <mxCell id="_5cwRUb4suJWPlaSnPq4-39" value="队列大小 &amp;gt; 10" style="shape=rhombus;perimeter=rhombusPerimeter;whiteSpace=wrap;html=1;align=center;" parent="_5cwRUb4suJWPlaSnPq4-1" vertex="1">
          <mxGeometry x="55" y="210" width="120" height="60" as="geometry" />
        </mxCell>
        <mxCell id="_5cwRUb4suJWPlaSnPq4-40" value="加入队列" style="" parent="_5cwRUb4suJWPlaSnPq4-1" vertex="1">
          <mxGeometry x="60" y="410" width="110" height="50" as="geometry" />
        </mxCell>
        <mxCell id="_5cwRUb4suJWPlaSnPq4-43" value="否" style="text;html=1;align=center;verticalAlign=middle;resizable=0;points=[];autosize=1;" parent="_5cwRUb4suJWPlaSnPq4-1" vertex="1">
          <mxGeometry x="200" y="250" width="30" height="20" as="geometry" />
        </mxCell>
        <mxCell id="_5cwRUb4suJWPlaSnPq4-37" value="是" style="text;html=1;align=center;verticalAlign=middle;resizable=0;points=[];autosize=1;" parent="_5cwRUb4suJWPlaSnPq4-1" vertex="1">
          <mxGeometry x="85" y="290" width="30" height="20" as="geometry" />
        </mxCell>
        <mxCell id="_5cwRUb4suJWPlaSnPq4-44" value="toast依次显示" style="" parent="_5cwRUb4suJWPlaSnPq4-1" vertex="1">
          <mxGeometry x="60" y="500" width="110" height="50" as="geometry" />
        </mxCell>
        <mxCell id="_5cwRUb4suJWPlaSnPq4-46" value="" style="endArrow=classic;html=1;exitX=0.5;exitY=1;exitDx=0;exitDy=0;entryX=0.5;entryY=0;entryDx=0;entryDy=0;" parent="_5cwRUb4suJWPlaSnPq4-1" source="_5cwRUb4suJWPlaSnPq4-40" target="_5cwRUb4suJWPlaSnPq4-44" edge="1">
          <mxGeometry width="50" height="50" relative="1" as="geometry">
            <mxPoint x="250" y="670" as="sourcePoint" />
            <mxPoint x="300" y="620" as="targetPoint" />
          </mxGeometry>
        </mxCell>
        <mxCell id="_5cwRUb4suJWPlaSnPq4-10" value="服务端" style="swimlane;whiteSpace=wrap" parent="1" vertex="1">
          <mxGeometry x="490" y="230" width="280" height="570" as="geometry" />
        </mxCell>
        <mxCell id="_5cwRUb4suJWPlaSnPq4-11" value="" style="ellipse;shape=startState;fillColor=#000000;strokeColor=#ff0000;" parent="_5cwRUb4suJWPlaSnPq4-10" vertex="1">
          <mxGeometry x="120" y="40" width="30" height="30" as="geometry" />
        </mxCell>
        <mxCell id="_5cwRUb4suJWPlaSnPq4-12" value="" style="edgeStyle=elbowEdgeStyle;elbow=horizontal;verticalAlign=bottom;endArrow=open;endSize=8;strokeColor=#FF0000;endFill=1;rounded=0" parent="_5cwRUb4suJWPlaSnPq4-10" source="_5cwRUb4suJWPlaSnPq4-11" target="_5cwRUb4suJWPlaSnPq4-13" edge="1">
          <mxGeometry x="40" y="20" as="geometry">
            <mxPoint x="55" y="90" as="targetPoint" />
          </mxGeometry>
        </mxCell>
        <mxCell id="_5cwRUb4suJWPlaSnPq4-13" value="toast新广播" style="" parent="_5cwRUb4suJWPlaSnPq4-10" vertex="1">
          <mxGeometry x="80" y="110" width="110" height="50" as="geometry" />
        </mxCell>
        <mxCell id="_5cwRUb4suJWPlaSnPq4-48" value="广播的数据格式" style="shape=note;whiteSpace=wrap;html=1;backgroundOutline=1;darkOpacity=0.05;fillColor=#d5e8d4;strokeColor=#82b366;size=16;" parent="_5cwRUb4suJWPlaSnPq4-10" vertex="1">
          <mxGeometry x="80" y="190" width="110" height="120" as="geometry" />
        </mxCell>
        <mxCell id="_5cwRUb4suJWPlaSnPq4-36" value="" style="endArrow=classic;html=1;exitX=0;exitY=0.5;exitDx=0;exitDy=0;" parent="1" source="_5cwRUb4suJWPlaSnPq4-13" edge="1">
          <mxGeometry width="50" height="50" relative="1" as="geometry">
            <mxPoint x="280" y="360" as="sourcePoint" />
            <mxPoint x="280" y="365" as="targetPoint" />
          </mxGeometry>
        </mxCell>
        <mxCell id="_5cwRUb4suJWPlaSnPq4-42" value="" style="edgeStyle=segmentEdgeStyle;endArrow=classic;html=1;exitX=1;exitY=0.5;exitDx=0;exitDy=0;" parent="1" source="_5cwRUb4suJWPlaSnPq4-39" edge="1">
          <mxGeometry width="50" height="50" relative="1" as="geometry">
            <mxPoint x="350" y="560" as="sourcePoint" />
            <mxPoint x="275" y="670" as="targetPoint" />
            <Array as="points">
              <mxPoint x="340" y="470" />
              <mxPoint x="340" y="670" />
            </Array>
          </mxGeometry>
        </mxCell>
        <mxCell id="_5cwRUb4suJWPlaSnPq4-96" value="客户端" style="swimlane;whiteSpace=wrap;fontStyle=0" parent="1" vertex="1">
          <mxGeometry x="60" y="1120" width="370" height="730" as="geometry" />
        </mxCell>
        <mxCell id="_5cwRUb4suJWPlaSnPq4-97" value="" style="ellipse;shape=startState;fillColor=#000000;strokeColor=#ff0000;" parent="_5cwRUb4suJWPlaSnPq4-96" vertex="1">
          <mxGeometry x="190" y="30" width="30" height="30" as="geometry" />
        </mxCell>
        <mxCell id="_5cwRUb4suJWPlaSnPq4-98" value="" style="edgeStyle=elbowEdgeStyle;elbow=horizontal;verticalAlign=bottom;endArrow=open;endSize=8;strokeColor=#FF0000;endFill=1;rounded=0" parent="_5cwRUb4suJWPlaSnPq4-96" target="_5cwRUb4suJWPlaSnPq4-99" edge="1">
          <mxGeometry x="135" y="40" as="geometry">
            <mxPoint x="150" y="110" as="targetPoint" />
            <mxPoint x="205" y="60" as="sourcePoint" />
            <Array as="points">
              <mxPoint x="205" y="90" />
            </Array>
          </mxGeometry>
        </mxCell>
        <mxCell id="_5cwRUb4suJWPlaSnPq4-99" value="处理广播数据" style="" parent="_5cwRUb4suJWPlaSnPq4-96" vertex="1">
          <mxGeometry x="150" y="100" width="110" height="50" as="geometry" />
        </mxCell>
        <mxCell id="_5cwRUb4suJWPlaSnPq4-100" value="" style="endArrow=open;strokeColor=#FF0000;endFill=1;rounded=0;entryX=0.5;entryY=0;entryDx=0;entryDy=0;" parent="_5cwRUb4suJWPlaSnPq4-96" source="_5cwRUb4suJWPlaSnPq4-99" edge="1">
          <mxGeometry relative="1" as="geometry">
            <mxPoint x="205" y="220" as="targetPoint" />
            <Array as="points" />
          </mxGeometry>
        </mxCell>
        <mxCell id="_5cwRUb4suJWPlaSnPq4-104" value="添加toast队列" style="" parent="_5cwRUb4suJWPlaSnPq4-96" vertex="1">
          <mxGeometry x="250" y="320" width="110" height="50" as="geometry" />
        </mxCell>
        <mxCell id="_5cwRUb4suJWPlaSnPq4-142" value="" style="edgeStyle=segmentEdgeStyle;endArrow=classic;html=1;entryX=0.5;entryY=0;entryDx=0;entryDy=0;" parent="_5cwRUb4suJWPlaSnPq4-96" edge="1">
          <mxGeometry width="50" height="50" relative="1" as="geometry">
            <mxPoint x="260" y="245" as="sourcePoint" />
            <mxPoint x="310" y="320" as="targetPoint" />
            <Array as="points">
              <mxPoint x="260" y="250" />
              <mxPoint x="310" y="250" />
            </Array>
          </mxGeometry>
        </mxCell>
        <mxCell id="_5cwRUb4suJWPlaSnPq4-149" value="" style="edgeStyle=segmentEdgeStyle;endArrow=classic;html=1;exitX=0;exitY=0.5;exitDx=0;exitDy=0;entryX=0;entryY=0.5;entryDx=0;entryDy=0;" parent="_5cwRUb4suJWPlaSnPq4-96" edge="1" target="HKDZfd3m-U1hOn4cxar5-6">
          <mxGeometry width="50" height="50" relative="1" as="geometry">
            <mxPoint x="150" y="245" as="sourcePoint" />
            <mxPoint x="110" y="320" as="targetPoint" />
            <Array as="points">
              <mxPoint x="60" y="245" />
              <mxPoint x="60" y="445" />
            </Array>
          </mxGeometry>
        </mxCell>
        <mxCell id="HKDZfd3m-U1hOn4cxar5-2" value="uid==送礼uid" style="html=1;whiteSpace=wrap;shape=isoRectangle;" vertex="1" parent="_5cwRUb4suJWPlaSnPq4-96">
          <mxGeometry x="150" y="220" width="113.33" height="58" as="geometry" />
        </mxCell>
        <mxCell id="HKDZfd3m-U1hOn4cxar5-6" value="添加互动区" style="" vertex="1" parent="_5cwRUb4suJWPlaSnPq4-96">
          <mxGeometry x="150" y="420" width="110" height="50" as="geometry" />
        </mxCell>
        <mxCell id="HKDZfd3m-U1hOn4cxar5-8" value="" style="endArrow=classic;html=1;entryX=1;entryY=0.5;entryDx=0;entryDy=0;" edge="1" parent="_5cwRUb4suJWPlaSnPq4-96" target="HKDZfd3m-U1hOn4cxar5-6">
          <mxGeometry width="50" height="50" relative="1" as="geometry">
            <mxPoint x="304.40999999999997" y="370" as="sourcePoint" />
            <mxPoint x="304.40999999999997" y="420" as="targetPoint" />
            <Array as="points">
              <mxPoint x="304" y="445" />
            </Array>
          </mxGeometry>
        </mxCell>
        <mxCell id="_5cwRUb4suJWPlaSnPq4-109" value="服务端" style="swimlane;whiteSpace=wrap" parent="1" vertex="1">
          <mxGeometry x="520" y="1120" width="330" height="730" as="geometry" />
        </mxCell>
        <mxCell id="_5cwRUb4suJWPlaSnPq4-110" value="" style="ellipse;shape=startState;fillColor=#000000;strokeColor=#ff0000;" parent="_5cwRUb4suJWPlaSnPq4-109" vertex="1">
          <mxGeometry x="120" y="40" width="30" height="30" as="geometry" />
        </mxCell>
        <mxCell id="_5cwRUb4suJWPlaSnPq4-111" value="" style="edgeStyle=elbowEdgeStyle;elbow=horizontal;verticalAlign=bottom;endArrow=open;endSize=8;strokeColor=#FF0000;endFill=1;rounded=0" parent="_5cwRUb4suJWPlaSnPq4-109" source="_5cwRUb4suJWPlaSnPq4-110" target="_5cwRUb4suJWPlaSnPq4-112" edge="1">
          <mxGeometry x="40" y="20" as="geometry">
            <mxPoint x="55" y="90" as="targetPoint" />
          </mxGeometry>
        </mxCell>
        <mxCell id="_5cwRUb4suJWPlaSnPq4-112" value="新广播：&#xa;VTR_GIFT_LOTTERY" style="" parent="_5cwRUb4suJWPlaSnPq4-109" vertex="1">
          <mxGeometry x="80" y="95" width="180" height="60" as="geometry" />
        </mxCell>
        <mxCell id="HKDZfd3m-U1hOn4cxar5-9" value="" style="shape=image;verticalLabelPosition=bottom;labelBackgroundColor=#ffffff;verticalAlign=top;aspect=fixed;imageAspect=0;image=data:image/png,iVBORw0KGgoAAAANSUhEUgAAAkoAAAHeCAYAAABkPCRRAAAgAElEQVR4Aey9+9dVRZrnyT/gD9U9Y8+srs6anp5xelzVv1htTWXb1mSblbkmM5fJajt1udLKykysspA0TVNSUdPUwgt4RwXxAogCKgoqF7klilxVEkRQQBR5AbnI/X5HjFmfwO823nhjn7PP7X3POe8Ta+2z944d12/EfuIbTzw7Th9nzhAwBAwBQ8AQMAQMAUMgiUCfpK95GgKGgCFgCBgChoAhYAg4I0rWCQwBQ8AQMAQMAUPAEMhBwIhSDjDmbQgYAoaAIWAIGAKGgBEl6wOGgCFgCBgChoAhYAjkIGBEKQcY8zYEDAFDwBAwBAwBQ8CIkvUBQ8AQMAQMAUPAEDAEchAwopQDjHkbAoaAIWAIGAKGgCFgRMn6gCFgCBgChoAhYAgYAjkIGFHKAca8DQFDwBAwBAwBQ8AQMKJkfcAQMAQMAUPAEDAEDIEcBIwo5QBj3oaAIWAIGAKGgCFgCBhRsj5gCBgChoAhYAgYAoZADgJGlHKAMW9DwBAwBAwBQ8AQMASMKFkfMAQMAUPAEDAEDAFDIAcBI0o5wJi3IWAIGAKGgCFgCBgCdSVKr7/+urvgggvcoEGDDFlDwBAwBAwBQ8AQMARaHoG6EaVDhw65Pn36uLvuusvt27ev5YGxChgChoAhYAgYAoaAIVA3ojRlyhT353/+54aoIWAIGAKGgCFgCBgCbYNA3YjSxIkT3YUXXtg2wFhFuiLw1VdfOR1dn5qPIWAIGALti4BkH2dzvQsBI0q9q72rri3C4csvv3QnT550p0+frjodi2gIGAKGQKshYPKv1VqsvuU1olRfPNs2NUjSiRMn3PHjx92pU6fatp5WMUPAEDAEYgRM/sWI9K77uhGlJ554wv3N3/xN70KvF9UWcnTs2DFPlEKNkqmhe1EnsKoaAr0UAZN/vbThv652zUSJgXL+/PnuvPPOc9ddd13vRrMNay+VM9okiBIk6cyZM76mzLIQICzHcW3OEDAEDIF2QsDkXzu1ZvV1qZkodXR0+G0B2BpgzZo11ZfEYjYdAggJSBFEiCU3DpEknkGStBwXapmariJWIEPAEDAEKkTA5F+FgLVx8JqJEths3LjRf/H2i1/8oo2h6n1V02wKggQhgjDhJwc5EokyoiRU7GwIGALtgIDJv3ZoxfrUoS5EiaKMGTPGtgeoT5s0TSosp0GEjh496rVH3CM8JEC4hyBxSNPUNIW3ghgChoAhUAMCJv9qAK/NotaNKNk+Su3TM0SGWFpDmyTbJNUQAYKGiedGkISKnQ0BQ6AdEDD51w6tWN86GFGqL55tk5rIEEQpJEQIEe4hT2ibCCfHM3OGgCFgCLQ6Aib/Wr0F61t+I0r1xbMtUkNLJG0SRAmhoVkWy2x5X8BpCc4IU1t0A6uEIdArETD51yubvWSl60aUZs2a5c4991zbtbkk3K3xEMIDQeIIDbgRIPrKjWdadoMYpchTa9TWSmkIGAKGwDcImPz7Bgu7OotA3YgSGgiIEl++rVu3zvBtQQQgPJpNxUtr+EuAQIqkPcIfMiUCJe1TC1bfimwIGAK9GAGTf7248ctUvW5EiXyWLFniLr/8cvfQQw+VydYeNyMCCAoIb6gdwo8DAgQhEoGCIMlf2ifi4hc67gmr8OEzuzYEDAFDoFkQQFaZ/GuW1miuctSVKDVX1aw0lSKAoJBmiLPIDf6QJLYJgBShTcLxHMGCP88hU7FTGGmg4ud2bwgYAoZAMyBg8q8ZWqE5y2BEqTnbpUdKJUIE+RGxwQ8CJC0Tz0SgCANx0vYBhI2d4opIpcLEcezeEDAEDIHuRsDkX3cj3jr5GVFqnbZqeEkRFJAfyI0IjTRCEKKUlkn+sTaJ+MQlvVATpXRVmfhe/nY2BAwBQ6A7EUAWmfzrTsRbJy8jSq3TVg0vKYIiJi4QIMgQR6hNkj/kCeESx5PQIZ529pYmSvmQRkywGl5Jy8AQMAQMgQQCkkvhI8k5k38hKr3v2ohS72vzimqM8NBSHEKDe2mKIEmhlilMmDA8Q8CITCke6XGwHMfBtdIO07BrQ8AQMAR6EgGTfz2JfvPkbUSpedqiZUoC4YHcQIIgOuFMLCRSIkmQIA40T/hh0xQeaJxEpsK0WgYQK6ghYAj0GgRM/vWaps4qakQpg8IuiiIAmYH4QHo4IE0iONIaiRBBpCRYIEMQJM7EgThxEAY/DsKKbHE2ZwgYAoZAMyFg8q+ZWqN7ymJEqXtwbqtcRGRCgqPlM2maIESQJdkv4S8/rkMSBDkSieIZcWwprq26jFXGEGgbBEz+tU1TFq6IEaXCUFnAEAHNqiBL4TIa1yylcYbwQIIgPSERktYoTC8kWMSVdikMY9eGgCFgCDQDAib/mqEVuq8MRpS6D+u2y0nCAkLEIa0RRAdtkrRCPONefikgFFdbCXAPoeLgWmml4pqfIWAIGALdjYDJv+5GvOfyM6LUc9i3Xc6QGjRBaJkgNwgSDq4hSaW0RISBYHEQXyQJkoUfz/EzZwgYAoZAMyJg8q8ZW6U+ZTKiVB8cLRXnMiNskRxIEtehRilFdginJbxQ60Q8yBV+XBPOnCFgCBgCzYiA5J3Jv2ZsndrKZESpNvwsdgkEEBwcslES4UGQSKjwDG0RhCjUHPEc8kSckDyF2Sl9zuYMAUPAEGgmBCSfTP41U6tUVxYjStXhZrEKIICgkAYp1BhpGQ0BIn/ZJoUkStokhY+z1MxNecTP7d4QMAQMgZ5CwORfTyFf/3yNKNUfU0vxawQgOCI5oeYIDREkSERIX8kpLMRH2iTOxA2dZmqE57nihWHs2hAwBAyBnkQAuSTZZPKvJ1ui9ryNKCUwvOrG4e6yAQ/5Y/feg27tZ1uz+98NGZ+I0fNe23fuc3/2V/388e3Lb+9SoI1bd2V16P+HUf75q7OXZn7PvTq/S5xqPWbN/8D9j1895H5242PumZfmePuiu4dPdpdf97D76Q2Puj+t/DRbajt8+Ijbs2e/27f/kDt46Kg7euzsf8exDAeRQtDgd+ToN8ep02d3+j5w8LDbu++gj3fo8DEf5vCR453OxDt+4mRWFeKGaen6xMlTWZhGXZD3sg83uPnvrXEdW3a601+eNU7XOcyX8qhsqfOZM12XG48dP1kyjtI5cfK0zwrCKb9y55OnzsYJy1jpddyO5IlfUUd5Oz7f6eYsWuVWfbzJ5ZUJPMvVR8+//PoDgWqxKNdOyof05Wg7+YfnclhQX4VXGypNznrGOcyPZ60o08K6tdo1+GsiiH2ltN9cM7njGTKOg4ki95Ap4hEmlH9xW3JP2Dh9MFJYnVsNt2YtrxGlRMt856rBGelA6GzdsTe7/8l1jyRi9LwXL8a6DdvcUy/OdRdedmuXAu0/eDSrw3f/4W7/HKIkcvXYczO7xKnWg4HsX194tfvf/9uv3INPv+4Fw833jfd5/av/3M+TBcqLwLhp6PPuP37vevdvL/pnx7P/+a//0W3Y/EVmr/TRus3uX/3nq7NyUt7bHnrRx71swAPuP1xynTv3//knH5dwxP83f/NP3u9ffx3vyt88mlUFbFTn+PyXPxzoHnhmqqs3adq2Y5/72cARWb7funiAv77gx4PcTUPHux/0G5KVj4sDh75pq7iMun949PROcRYsXZulrzB559seesnHPXTkWOE4I8bP7pRfpTcvTF2UmxfksZyjfud97wafhs60F6Q8dnMXf5ibV4zJ+6s7fPRqsNix+0DhfGa+vSIr5i0PvJgbj74x4I7R7otd+7PwXED+wrKDQeieGD+n0/MXpy0OH7tWlGmdKtCCN8g3tOecIUrIPBEYyT+RJSaEes41/tJGxVWHJJGmyJTiEU7XIl1xXLuvDgEjSgncrrntaS90JIyYdUpIIeSa2TFwpIgSZdYAjSDGMUioXtPfer9u1fqkY7snLv/u4v5u4vRFXlg8+cJs979++xpPYHbs3u+FAEJk3/6Dbt47H3p/tAQMEAgBZlmaieH33sr1vqzvrFjnDh85u6Hlf7/2ATfutQUObdq2HXvdslXr3f/2/w5w6z773H2+bZfbsn2XGzZmuvv7Gx/PbKUgjJSPen+wZqOPS/z1m75wE6cv8YMxZFiahlpBQSNJe/z0hsc8QUQTgEbh48+2uUfHzvTlSGkAiUe5OMZOnu8Io3vOaKdCR3nBCRJE/w3DhtfX3zXWhyGuyAG4K8zol99yF195R3aP/xXXD3O1EiUGeuWBdmPw45P8PWSjnHt20tseJ0jsnv2HfXDw4Z52pG+EDqIECVV+nMFk0AMvdPIjbkyUKsVi196D7uU33vH9JswvvAbPKXOXZUVE88dz2hS8FXbT1t2Osn//F/f49Khj6Kg77cd7HD9D23T3iFf9MzTgcf9tZZkWYtAq1xAW5Je0Psg07iEwHJAg5B+HCBFxZHYg+YefnEhQqHHiGkc80iEf8uTMPQf58dxc9QgYUUpgd99TU7wA7tv/wewpQg3BimAr4irRSjCIhC8E6ccDYV6e8fJDKaKE5oI6SBuB4OWe46NPPs/LomJ/BgK0O//mb65xS97/2M98Zs5b7knMty6+NpsNhbOti674gxv10puZcEFQhLMiyvx3P787EyTMpi695j43be6yTEhs/PwL93/93a/9cpyE0LjX3na/vHmET4uKgPPBw2c1KalBmsGKgWhGoAGoGICvIzBYMZOHJMUDl9KELKWIkp5znjp3mZMWMPRPXdN3f3vP86lH3u/3D0/sQpRCHCbPeq9LXv0GPVkzUQoLxKA97NkZoVfuNUvG9M9YQ6IIkCjai3aTg2zEkwUwgUiEjngxUaoGi1R+YT60HW0YO/pGyh8yTRzaKnZoG5nAQRJDJ613Hk71kGlhfnZdHgGRF2QV8ggCIzIjPwiNSAyySeQqln/kxnPCEof4nEWCSJc8lK7kn0gT4ZRG+ZJbiBgBI0oxIs65l2e844VzaI/EYIHARijmOewnCKelAc7Mnles7nDYBYk83f7IRMdy0EOjpvtBjXQJy1LYhs073I+uvs/nRVxsWWLHoAthQ/OhuL+6c4y3pSpFlJiNEv61OUuzJBks8EO7UModOHDADRo0yF1xxRVuwYIFpYL6ZyyLsPy2bcce//Kv/mST+z8uuc5ddu0DnWZSeoFHTXzT/fX/uM2/+LzcvPC8/AiG019+6f7TDwe6CVMWej8JhB9cPcRNnfsnL4AI37F5u/uLvx3gDh06ejbe6dPu+Vfnu2tuG5kJFQpXiijxHNwZWGp1q9Zt9tiidchzaAbKafPqSZQgZo+MecMXRxqlashBXn2K+FdClHifLr3m/txkGTwgFbxTcini0pNECaK88E9rVbzsnEeUCMASerwkq4jUj3c2nNwgT7CrBI+Uq1ampdIyv+IIePkV2SWJxEjbQ2q0GwfyMJZ/ekZaISGShkrhkYHyU74KL1JVvOQWMkTAiFKIxtfX2EwgiJ584Y/Z06FPntUyQWRSDrsc4vS/fVRmbDpm0jyvTcCfQ3YHb8x73xMl/CAUCD7N+CAuv7x5pMMmAyIEuQkdL83AIeP8LHr0K/PcyrWbvHEwRIm4N98/octsWvGxQyJP4sghjCFp5dywYcNcnz59/HHuuedmGpq8eCJxX36tLTt0+Kj78//6z+43dz3rSQsvNC8z9cHtPXDYa6HAnpebl56Xm+uFf1rj4+7eeyAjWTy78d7nM40Vwmfjlp1ei4VdGY70Z81f4e545EUvfMiT/EoRJUgNOC5a9rFPo5YfBjtIb62uFqL0zopPcgdctJEsCx0+ejwrYkqjxDIZJL5erhKiRFtg/F7Kof0LNW70bwhW6FJEib7P5AZXCxYxMYOAUm40q6VcHlGiLJDDWGsUpsX7TtsRljbjvQ61amFYrquRaXEadl85AiI5ECBkGQeyK5Z/SpnwsfxTXOKJZHGNP+kgK/HHD5knJ7LEc8iU5J+e27k4AkaUElixFMZSj4gNQdDsPP78rERo53bvO+QFY97zkRPOGlqG6bH0gDDFNgZHnhAWlvu07Lb0a7scnskNGzvDh8OuIXYQJwRmvOygcKjnyTdcBoKQpdT/iqPzhAkTMqJ0/vnnZwRHz+Pzux986jVzoT9f1qFlyXMMoAxo4ayKl/zGe8a6m4c+7+2WUEnz0ksIIBxEqjZv2+1to0SUyIdwhJcgySNKtA2aNtqAASz1VVleufP8IbylBru8eLF/pUSJPjTtzeX+gOTk9Yc4H+5TRCkVrha/okRp556zxtKhxiuVLwSBfh9+3RiHSxGlOEx8XxQLiBL9RpiPe32BLw/2cKVcTJRYVlu8fJ0nfciGz7fvyY1O2uSJ1puw5UwCKpVpuRnbg4YjEMs/ZBcyDtlXSv4RD/kWupT8C5/bdTEEjCgVw6lkKDRP2JmEhCaMwMyS2Ws4w4Sw6DN9hUVwhkafss9g1ijHoJdHbHhJGCQrGRiVbrkzs5Fp06a54cOHu23btpULXtVzlicY8JiRiwixNIVR+KJla7yQQGAw49LMS2pn/BhYiJ9HlAgbEiUGGjR6f/G3v/LxiItmD41TPRxLLmgVa3WVEiUGTvoSB/WrpD8UJQe11KkoUcKwmjaJhX+cN+8H4TTpiJ9z32iiRP7CHLy5L0KUaCvaiL5IHA60RdJ0peoiv9kLV/rwyJZw8qPndm5NBOjvkn/INWQvsguSVEr+ES9+V0KiJPnXmqj0bKmNKNUBfwTbXcMnV5RSNUQJrQeClJlnnuMz4UoGxrx0esIfLQ6DhgxSeenHTn7b/fV/v9WdOPHN1xyaOSFEQqK05Yuz2zgUIUpsKfDqrHfdgqVr3NzFq9z/1+9e9x/+23XuT6s6f0FVCw4/v+kJ/2VbmAYkkEGRATI86EN5rlKiBCmQYzCtpD/0NFFC4yjCU1SjhCaR9yKciKj+OjeaKIUYq9xFiBJL+mh1OX49+Flfj3LaIdWJM1/3lbNxC8PbdesgIMIE2ZGs05Ibz+Qn8pSqWR5Rwh85ygER03UqDfNzzohSHXoBxr8siVXiqiFK7JPEgBBqmOI8WX4LhXb8vNnvwYXPo+WYpWN8rBebM0IiFhS87CmihADQuj6ChXgHDh7xX+B9vm1nps5m88rBj7/i/pdvX+NWrDm7t47KUO15yMjXu2gNSYttCVhW5WCghDgx2Oe5WogSXzZCloq6niZK2OTd//Q3X3RBJsvZi7FHUWijlKprdxIlCL/IPmXB7i1FZujbsXaYLSp4x4uSJd711F5SKQzMrzURQGYVkX+p2qXkH2nJZEHLeZAtJp08M9cVASNKXTGp2Ofeka95A+xKIlZDlBDADBwMtHmOgaaViRKbMzJQsBfM6k+3+Gtsq3AiSKo7QoAXnpcdErRl+x5vEI5GibB6jhAgHGSKY8++g+68v/u127Jtl/cnLs8RFGyA+V8u/31SO6E0CU863JdysnlCi5TnMETuzu0B8soh/2YgSuEXhxhl8zVXnqMNINapT+nDON1JlMJ8uZ61YGWyjVNEifDsy6R3IE4rvu8OojRz5kx3yy23+GPs2M4fl8TlsfvGIUBfD2WO5JvkX/iMaz2P5Z9Ikuw2Q/nHM+KlnNIsKv9SabSqnxGlOrQcXxYh2PiyJOWwH2DTQASgXDVEibhsFsmXVCmbBH2O3giihF3SpZde6jDkHjdunKrRkDO2PXc++oof/NjsMM/x4kJYJAg2b93lN67k70zCWRPPebklOHbv2e/3W2LrAvwkABASe/YecP/l8tvc/U9N8f48kyNN0pGGKk+gKDxLQbQFg3SYjp5zNqIUouH8V54hUZKdXqihCWM8/9oCP3lIbaMRhmslokS5IYjYHpX7qKA7iNLFF1+cfciBnaK55kAgln/IQmSUDhGiWP7JOFwyMZR/hGXCKLkYyq1K5V9zoFSfUhhRqg+O2Sf7r8x8N/tqjX2TWF5hxguRYgsBHDYM7KDMTDlccmGGiY0Rn8rjNEiwX4qW23iGBgICobgYkbPlANombBY4iFvORsJnUvDnnnvuyYTlOeec4wlKwagVB2MpRfY78dJEnBgv74ZNX7i16ze7Be995PdqWv7hen/P0hovPQKEF58zWqRlqz51f/G31zp2+f6kY5tjgz8JC4TI7AXvu//zu9f5/6Tbu/9QliVhEC4IIMKVI0pEZA8t2h4je4hsaPDPDuEQ35RGiS+5Pt243R98NUkY3XMO7bDIh3Sx7eErKPbUCcOq72QViS4Ulzh8uUn/4ZqtMOrVh8BYZaJ8bHGh+/DMX72ERImiYhAPhixl7jt4xJeeJUW+TMWfiUrKse2B0uYLRD6e4B5s8+yZKsWC94xJELZ1yis+s4wWtjEaRsJAcliy5zrGWfaIoya+lckD1ZEPHJQHbcWu6dzT/mH/Uvhazvv378/e+4suuqiWpCxuAxBA/kkeaQKHzBMZiuWfwhCHuCJCofyDLBGOMMhMuWrkn+K2+tmIUp1aEAE1fNxsL7gR3uFXLHzlw1KSHISIMBwQAm0HIEKlvxgRUSJcaIcA0YJkKb7OCGTt54QfeyrVy82ZMycTmJdcckm9kk2mw8AuoqRNOpMB2X9p/2H/327/7r/2d//+O7/y/y/H/7+xueV/+sGN/pNxBAIHJOeHV9/jw7BruP4LTrtwEwbBgqD459uedP/+OwPcPU+cNdKXIEFwkA5nCZm8ssmf5UTs2GgTDgY36sc1+029ueQjBfXnIv/1Rl8LnTYhVB7hmWel3Lx3V2dlC+NxTbnr4WR7E6efusduK3bspaR3SthxzwQhz7ETdyp9/J556c1ktEqwkNF2Xh6hP++8HMuE4TOuU0uHECCehXFJgz2W4vi6j//ORXlWe54yZUr23i9ZsqTaZCxegxBAZkkmQWyQXzpEdEL5J40RfrH8CuWfwmkyWIv8a1DVuzVZI0p1hpuZKpoDiA3ahHimWM/s+IwdwY4tT2oprp55kdb69evd4sWLPVGod9r1SI+XGaEhwREKA154BAczJYhOyhGfMAgJDsJJmJBmKHhS8cv50TfQDtI3WKZl/y1zxRGgLdByYfODnV45TVnxlC1kHgLXXnutJ0p9+/bNC2L+TYJAs8u/JoGpqmIYUaoKNovUrAho9hSSJMoK6ZHaGdKTcggaaZQIC7nCj0PxOZO2OUOgNyDALvzsyL969ereUN2Wr6PJv8Y0oRGlxuBqqTYZApAjkSDITuw0G0OTJK2TyBaEibgp/5BMxWnavSHQygjIPmnAgAGtXA0rOzaMJv9q6gdGlGqCzyK3CgJaeoMIsYQGMQodgoRnfGobPocsiWBBlKRN4kw4aZ7kH6Zp14ZAqyOwatWqrM+3el16c/lN/tXW+kaUasPPYrcIAtIYSTMEyUGzBEHSshpEief4EZ6DZ/sPHHJsSHn4yFF39NgJd+TocXfo8BHvv2//Qf/s4KEj3o8wpf5zrEXgyi0mxvXYWhU92hmLXJDsgSHQZAhUK/+QhUwGQ7nIpDCWmaE8bcdJoxGlJuvQVpzGIZB6waUtgiRxIAD0oiMkho581f3f3/+N306Avz35ny682v3bi/7Z78OE/3/83vV+KwE2sORgW4FvXXytg1AgnNrJ8XWevq6q5FzvL7HaCVOriyHQXQhUI/8gQMhFzsQX4ZK85AyR4tA1MpRw7ST/jCh1Vy+1fJoCAV521NC8zBzSMLHkxssubRLhEA5ojDo2b3dsZsmf7nJs3LLTdWz+wnV8/oW/xo89rTZtxX+727l7XyfC1RQVr0Mh+LKSv4mp5OAT+nYSmHWA0ZIwBHoMgUrlnwhRLBdFikSgJFPlH044e6yydczYiFIdwbSkWgMBBm4JDM2YIEl66XnOiy8SpZcef641e1J4ah3HIS55mDMEDAFDoJkQMPlXeWsYUaocM4vRJgiEsyBID/c4aZMgRCI8Ei74hf4hFCJSIlhKLwxj14aAIWAINAMCJv+Kt4IRpeJYWcg2QiAkNaiL0RThh0OAiBBBoESSCENYiJBU0SEkIcEifkiUSIMDP+UTxrVrQ8AQMAS6CwFkEPIMWWbyrzzqRpTKY2Qh2hABBAUkCEITLqFRVcgMfggSERv5KXyK7BBG2iSlSTj8IVakpwM/iFUqnTaE26pkCBgCTYSAyb/KGsOIUmV4Weg2QAAhAUkRqeE65QinA4IDSSIOJCd2hIMMyZiRa9LlTDz8OTAa59AsLpVWnLbdGwKGgCFQLwRM/lWOpBGlyjGzGG2AAMICksLBdSnHc4gSJEkEKA6PP88hQNImhX48wx8/pSU/aZbyyoE/Rx6hi8ti94aAIWAIlEIAeWLyrxRCnZ8ZUeqMh931IgREQMpVmXAiOKk4+EGCIEkiU/iJOKFRIj5+OAgPQornesZ9TIQIr7A8Jw3u8ddRruz23BAwBAyBFAJFZQjherv8M6KU6kHmZwhECOQJFfxD0oO2SKQHEiQilCJBkCueQ7A4c096OM7SPCkdnUPCFBXTbg0BQ8AQqDsCvV3+GVGqe5eyBHsTAhAgNEM6RJIgMyI2+MUOwSMtVLjZpTRIkCTFJ5wO5cNzkao4bbs3BAwBQ6A7EOgt8s+IUnf0JsujbRGABEkjBDmCvCA8RHQgOHmOZzLuFvFRXBl8EwY/zeiULs9TBCwvL/M3BAwBQ6DeCPQW+WdEqd49x9LrVQhAYBAWkBkRGpEdNEIpoiTSg3ZIJEtpSBOFP6RIaQpU7kkz77nC2dkQMAQMgUYj0FvknxGlRE+66sbh7rIBD/lj996Dbu1nW7P73w0Zn4iR9tq+c1/2J6Lfvvz2dKAqfU9/mf6kvcrkcqPVC4vcDHIeQAiGDh3qzj33XDd9+vScUM3pTdkhPlom4xqBguPMcxEiyBTX+HFouY243KccBCokSnEY5RX7270hYAgYAo1GALnVbvLPiFKi13znqsEZwTly9ITbumNvdv+T6x5JxEh7MWCt27DNPfXiXHfhZbemA1Xp2//2Ue7FaYurjF08Wo3RxlkAACAASURBVL2wKJ7j2ZDz589355xzjps4cWJSK1Npet0RXiSIM0eoMdKyHAJEGiFpkxRP5Il4Cp8qN8+ISzqkFzvlH/vbvSFgCBgCjUJAckzyp53knxGlRK+55ranPTE673s3+Kf8a/qf/VU/f9zywIuJGKW9Zs3/oO5E6ac3POZGTXyrdMZ1eFpvLIoW6be//a27+uqriwZvinAICMgLRIZZFWfu0RIhNLjmzL0MuNEO4QgrwUI4CZuwYhJE0igRB6LEobx4RnwOrlNEKkzTrg0BQ8AQqAcC7Sz/jCglesh9T03xpKhv/wezpyydQZZGv1yenJw8dTqLx0VRonTseL7hb6cEnXO1EqWiedWKRVzuovfXXnutu+WWW4oGb4pwWjqD8EBQuOeAtGhJDU2QDLjx5zkOUqMwXKccgigkVFwTn/AiWaSvg/R4RjxzhoAhYAg0EgFkETKnHeWfEaVEz3l5xjueFIX2SP0GPen95i7+MBHDObROkCiW5iBUaKN+decYb9+UR5T2Hzzqnhg/x11x/TD3rYsH+HicfzZwhOv4fGeXfM6c+cqx5Hblbx714S/48SB/zb0OypmyX6o0L2VeDRaKy3nEiBGub9++bsyYMaF32etWJUoICQ5IjAgKZw7IU0hoQm2PiBLkKfQPgQpJF2RI4fDnmjxFmiBjIREL07FrQ8AQMATqjQByqF3lnxGlRG9Z9uEGT1qefOGP2dOhT57VMm3YvCPz0wWD4MAh4zx5Gf3KPLdy7SY3/701nihBfG6+f0Jy6W32wpXuB/2GuHtHvubmvbvaffzZNm93dOk193uiBbmJHXZJEDI0XBAqrsOD5xqgw7jV5EX8SrEI81y+fLnr06dPdqxbty58XPK6FYkSuENOQmGB8AiJjGZcMYkRUYLsiACFAIloSeuk+PjrIB/8CQORCslamJZdGwKGgCFQbwTaWf4ZUUr0FjQyD4+e7r7YtT972rFlp3v8+VnZfXgxbOwMT2z4yi12ECc0TJUYc+87eMSTrmlvLo+Ty+5rXXpTQuXyqhQLpcu5o6MjI0kQpu3bt4ePS15ffvnl7vbb6/ulYMkM6/BQZAayIhskriEsIYHhGlJDeDn88sgN4QgvMpWKTzqEEUmCrHFvzhAwBAyB7kCgneWfEaU69CBI0NS5y5Ip0XmwdSpHlLBrYiuCo8dO+HSIM/71hck08ayFKFWaV24hCjxYtmyZe/DBB92KFSsKhHZ+oJ8wYYInWJMmTSoUp5kCSVhAakSOQvKCPxojwnHIKSzPY4JDOJEk0uI6jEsaIlKQLUiSaZOErJ0NAUOguxBALiHfkFGSae0g/4wo1diD0DqhMTpwqOsymZLGDilFlIjzwDNT3V/+cKBPg3Q4ZK9UT6JUS16qR3ecRZLYGoABvxWdhAVkBYGhpTiuITQxyaGOhCUcwkXhCCuhwzMEDs9TS3PE57nCpPJoRSytzIaAIdBaCLSj/DOiVGMfZJ8kyE38pVuYLMtvMVFCc8QeRZCkZye97VZ/usXt2nvQbflir1u07GMfvl5Eqda8wrp0x/W7777r91AaN25cd2TXkDxEVHQmk/A6zlSESLMvCJHIkZbxRKDiuKTLM2mTUkQqjmP3hoAhYAg0CgHJOp3JJ7yO8212+WdEKW6xCu/5Eg0N0AdrNubGvP6usV2IEkbXfBm3e9+hZLx6Lr3VmleygA32/NnPfuZuvbW+m3Q2uMg1JY8QQVigGRJJElEKtUyxsOFe2ijZOMVLdzUVzCIbAoaAIdBgBJpd/hlRqkMHGHDHaPejq+/zWwTEya1at9lrnGKN0oOjpvkv3uLw3C/801pPvkpplH5+0xPuzkdfSUXv4ldrXl0SLOjBgD1gwAB33nnnuRtvvLFgrLPBWvGrt4oqmAiMsNBym8gRJAgCFRMkReeZCBXnUmEVx86GgCFgCDQbAs0s/4wo1aG37D1w2H+uz35Im7ft9inytdgb8973hIf9jjg2bt3l9Mk/2wewZPfKzHcdmz/SSdg76a7HJ3t/nkFwSA+tVeyGPTvDh1u6cn22bxJ2SJNnvef3ciJvuVrzUjqVnhcuXNjpq7eiBt3k0xuJEvWmH6SOFPaEg0hpyY3lN/zMGQKGgCHQigikZF+eTOtO+WdEqU69aeeeA/6Pc0NjbJbk2ONozqJVGflhTyU57XodxkHzhI2SNq7kGfZLsTt+4qRDk6W4MgDnTB579h/uFKWWvDolVMHN7t27M6KEcfaBAwcKx+6tRKkwQM557RGaJ4gSZ9MmVYKehTUEDIFWRgB5113yz4hSnXvKwcPH/OaRkBt26y7n+GoOjQ8bTob7NpWLp+cYkS95/xO/XMc+Tnnsm/C15qU8Kznv2bPHzZs3z+3b13WPqVLpYJ905ZVXlgrS659JSMg2qdcDYgAYAoZAr0GgO+WfEaVe061aq6Jr16712qh7773X7d27t7UK3w2lhRAjKLQdgBlwdwPoloUhYAg0BQLdLf+MKDVFs1shUgiMHz/eXXLJJe7tt99OPe7VfggKbJIgS5CkUprEXg2UVd4QMATaDoHuln9GlNquC1mFegsCCAsjSL2lta2ehoAhECLQnfLPiFKIvF0bAoaAIWAIGAKGgCEQIGBEKQDDLg0BQ8AQMAQMAUPAEAgRMKIUomHXhoAhYAgYAoaAIWAIBAgYUQrAsEtDwBAwBAwBQ8AQMARCBIwohWjYtSFgCBgChoAhYAgYAgECRpQCMOzSEDAEDAFDwBAwBAyBEAEjSiEadm0IGAKGgCFgCBgChkCAgBGlAAy7NAQMAUPAEDAEDAFDIETAiFKIhl0bAoaAIWAIGAKGgCEQIGBEKQDDLg0BQ6B3IPDrwc+6/n8YVXVlJ896z9078jV39NiJitJ4c8lHbuL0Je7Mma8qjvfgqGk17cROvk+9OLfQn3WrcOx+vHXHXrdg6Vr/593yD88bt+5yjz8/y723cn3o3eV6/aYv3MOjp+em0yVC5LF52243ZtI8tzTKhzKOfmWemzBlkTt89HgUy24NgdoRMKJUO4aWgiFgCLQYAt+6eID7s7/q596Y937use/gkdxa9Rv0pI//+fY9WRjI13nfu8EdOnIs84svLr7yDh+v0r+e+c5Vg328ZR9uiJMsfK80RO46Pt/pScvMt1e4V2a+6557db4bMX62e+CZqe76u8a67/7D3T5PcNKx5Yuuf1A9793V/vnvH55YsiyzFqz04f7wyMslw/Hwk47tbtW6zZ3CTX/rfR//rscnd/IfO3m+97/wslvd6S/PdHpmN4ZAPRAwolQPFC0NQ8AQaCkERJREAFLn5R/lk5IUUfrZwBF+wD54OJ8oXfDjQT5MpWC9MHWRj3fz/RMqjZqFj4nSMy+96dNM1V1+kA/qNWzsDAchOnK0qwat3kTp1OkvHflShiEjX3cnTp7ydUgRJbRUKitt2rf/g52O3w0Zn9XfLgyBahEwolQtchbPEDAEWhYBESWWcfIOBuw8V44ovTzjHQcp6tiys1MS5IvWqVIHQYEQEF/EodI0YqKExgzyMXXuMvfitMXu3Q8+dStWd/h8IBzSej35wh/dE+PnuGPHTyazrDdRIt9xry/ICBCk6f3VHb6sYCCNEvmqHUWW4vP3f3FPsszmaQhUgoARpUrQsrCGgCHQEggcP3HS3f7IRMdyUOrQgJp6Fvqh0ZBj2YllHg6RjqFPTvH3EKJQoyTycMsDLyq6P5MvBCp2LIf95LpHSh4q84+uvq9kuFnzP8iS37H7gLcdwn5I2izspFau3eTDoP2CbFx6zf1ZHPKhLLj9B496wkLck6dOZ2HwFxZouYjDUh1+pE++gx+f1Om46sbhPhzYxc/mv7cmS1sX2CRRLtKmLaVRIi64Cw+W8mJSix/Pn530tpKzsyFQNQJGlKqGrrUiYnB52YCH/CEj1ldnL838sE9oBmc2BtW3Qqu0caU1ZOBX3x05YY6PzmApv5TdjgZ4DabVntFmyIn8pNIa//rCTkQJrYiWj/YeOOyTwICbuNgpxQ7Ckkq3Gr/h42ZnyWPgnJeGAv32nud9mNWfbvFehBdRwkibe4zXQxcuecXp/6DfELdm/ZbcfOPw3A97dkaYfHYNZmi7MNIOiZJI18tvvOMgo+RJm+PmLv7Q5/3ty29P2ixhg6W+s/BPa71hPfXFj7MZhGfw28XXCBhR6iVdIRw4mPnhIEoSWo89N7MpkGB2u2HzjqYoS6sVolXauFJc5yxalfXTu0e86qMPHDIu8ytFlOjru/ce7HQwqNLv123Y1sk/DMfEgTDKj0zRkkyZu8wfLOnwfPTLb/n7WKNEeJGUR8a84cvMAEwc8o8dxGr3vkMlD5bDiM9SYVjW+DpcIlv18Sb30Kjp/mDJj/hoyfCDnFAP+f/lDwf6e8LwHqqO3KMF4v7h0dN90TFYFxZgRJgrrh/m/SAfIko/veGxbGnz/qen+nA/v+mJzA9SR9w8okRm1If2kEaMpTf6OnmAm7RHENDQ7iqlpSK9f3lsks+TfCG/OKWNn03WPCT2EyBgRCkAo90vtZ4/4I7Rvqqs+yMYOJitNYOjLPHXLs1QrlYpQyu0caVY8gWU+inaBRxfZ8lv196DXZIUaQyXlBRIhGPam8sdtkQM0jcNHe8Y1Bls6X8KA9FIuXI2SsRhgKc9OFgKFHmQRjeVbim/K3/zqK8zX6tV47RcqK/e0MRAjnQIz/is55whO7GTpo0lSznVFUIrl/rqTdqfFFFCwwWpU59WuWSjpHQ5D3rghaw/EG72wpXh407Xz7/2jf2TsBS2oQaxUyS76dUIGFHqRc2vmbRmhXv2H86Ey0effF4WCWZasS1A2UjOuRMnT2eGoeXCI+R6gihRxkpcpVgQntlv6Ipi+eWZM4VnubW2cVi+ZrmGcGiQfGfFJ75YfNIuv1Q5Q6IEIYIEsRQTD7pKgzPPIBPkwR5JfDEVt5nyKkKUCCstCtolLR1Jw6S0ip41mGtwLxpP4WKiJH/OEEYwgJhwZhnqhruf89donku5ehMlllq1bKn2gYRJ+ySixDuFAfqv7hyT9QXisSxYyrEnlNKV3RXp44edmTlDIEbAiFKMSBvfszcKwuC1Od8IPg0ceXu/LFr2sZ9th4ILNTUbv+UNIkBIehhghvEYxBkssBFY+9nWDGlsa7A50EDAcgnX4UGcejiWLRg0SXvbjn3uruGTM7U7Zb3vqSm5G/JVggV1Jw+WOGQDwhIHgw5Lixjk0hbUO/4yinpim8FyA1hIqDPQPTp2ZkmyWk0b14rriBEjXN++fd2YMWNqTSo3PtoMcNi+c58PQ//hXsvIccSQKGHQSz8nLMs+6vN8WUV/2LR1d5cvyejj5JnnQqLEkhptGhpzKx7LdSz1YAiO1oQy85VZNY7+RPx6EKUvdu33RQAn7L1Il/cCUs41tjpco33mHjLCe5pyIVGivmz+WItGSUSG/s7SJhM6nIgmRAmDcbUj5YMEk28R+yLamzi0sRx9BD+RMPnb2RAAASNKvagfYIeEMNAXL1Qd8lLqc2UE5jW3Pe1QV6MKhyzoixOWP1IOQcQgw8CEHQMaIghCOPPDX+7AoaNeyCEUKR8DC9fhIVsCxan2zAaBfOpMPpQRcsRme9i5MPtH+DJwpFwlWLCRoQY28mGJARJGvuTxy5tH+t2OSRNyEzo0TczoCQfGLJHSZpBT2ooBJLWfDWlU08Zh3pVeL1++3PXp0yc71q1bV2kShcKDE9hpR2uWj7jPW8YKiVKcgUgOgyL9Kjywh5JWJbVsp7SUBloX2gnCLQPjvH2UKCtlLqK9VT7hWf2pVqIEIaLMaJY5UyaWyGTbxD1449DayAYIf/rqzj0HwmJ5/HimtCAgtRAlJmAprZCIEjZRYMy7wCafkN1KHHWivOAghz0TfuxXZc4QiBEwohQj0sb3/BUBs1pminLM3qqZ4aLhgWTEjoEM+w5m11Jrh2G0T0tIlMLnCKtGL71pKQfCEQ9qkBEEftFlMcqehwVYk5aEPgIa4Q4+Sh8hT515JseyD+FSuyCz9w24o7FKuXq2cSr92K+joyMjSRCm7du3x0Hqcs8SC8tDoUPjltdX+NIMXFNkJ1y2I0zewcAcO/oOpBcNhuLRVviVIkoM/hAI4uSRXPLCRopwqUP5QbxTz/FLvVfkxztOOZUGfUjX5Ik2RgeEHk2o7jn3v/0sySOOtFFMcJgAQeqVFmWjnUSU6P9MmDgoH+EoR+yXslFKYc9EB5JMPUmbr96qcfydS/gRADZk1Fnaq2rStDjti4ARpfZt27rXjFk6AzWDOnYcCKrYoflAGDJg5zlmgWhJUo64eYNfKnw1fiJKn27sOqhLE8EeLqVcESwQ/rHGA3IWDmYsZ1BnkUotfWBXk+dErqQByAvXXf7Lli1zDz74oFuxYkV3ZVk2H32+zlJbytHHGGSlTcKGiAPNAn2YgTN24SaItBkHmzHKvi219KY0Fi9f58OjwS3lIBOQjdShPHnvUs/xw2A6dFpWU1zOkDocRBCSFD4rdQ2BkjaaNOKw1F9YiCgRhvJyhOHlJ/+QKCFfWEIrdciYH61zqXBFluJCvOzaEEghYEQphYr5ZQgg4MMZo4Qds0KEXOyYqTFbrNaRfncRpRSZY9djypAiSpViUQ1RgryRP0sfDPKpQwOy9r2pFut2jidiwpddfLnGp+vYtcjRd0ONaNyfGehpg3BZB60M8dhgURqZ8L/e1C6xlpI89awWW7tqlt7QPNKfMEwXKdFXb5RL7zbvgg7CofXU/YyvDefRuMhhk0W6THq0VFmvr95SJIy8qj0aLU+EiZ3bFwEjSu3btjXXDLU6wgkbJQYeyAP2CR9/ts0vNyFQY8e/kyN8q3Xk12jBJo1SJUSpGiyqIUoyNMUODFuqUoeWQKrFup3jsUEifQmbLQgl16E2h76L9kYuJkqyiQqX39D6aclUNkp5RAlNIYbQaAZ5b8ifgyU7aV2Ud9FzNUSJrRNEjNBmUgbdk6+IUlgGsAjtd3gfiRcSJcJLo4lWjuf1IkqQU4ha3hFrwfgwIi8s/mwvYc4QqAUBI0q1oNfGcbGpQGDyZ5gpl7f0htBkEAptblLx8/wQuM1GlKrFohqiRF7gV2rpLQ878/8GAe0oLbsmER9piEoRJWk0IFa0R8qliJJIR/jRAktfGHrTr3Wk9iJK5RH7VUOUwjRKEaVwKU/llB9yAL+YKCntehMlpZs60x58CEF5aEPOdz76SipoQ/z4WOGWW27xx5133pnbPxqSuSXaYwgYUeox6Js7Y2a9CKHU7rYYh2J7g6CKHbY7+Id/oxCHwYA87zNc8uTLo0a6SjVK1WJRDVGi3nzVwyBVyrCUrQ1k19RIrMqlfYZPyAcMcOedd5678cYbywXvtuf6woxdonH65JwlMFweUYLga1ktNPb1kYKfmCiJXNF/OTAih0DIngw/NFsiHdV8+dZIosTXbDooK/joHu0Sfj1NlLA3EgmF9GFMzpIqZWOJMWVXFjRZXS4HDx6cfbwwcGD+9hF1ycwSaRoEjCg1TVM0X0H4ywJU1/pqC0GF8NdAgjDlU2UMvEOnZSpsF7Q/E0bKpCNBx7OUY1ZOvsqTMCyR8R9f+Kdsh1Lp5PkhXLWUwCDK30bIsayiZRoGPi0t8LxSLFiivO2hl/zSRlhmBDzLafr/LxlzM3CK+EDMCAfO4K2vFCkfZRcJ4EuwnnYLFy7MBg6+emsGg26IPIMnB8QdhyZCSzYsb+YRJQztiQcRKuVioiStCkRs+UcbfFT6MPmQHkvSOHYW557+lKetysu3kUQpzLPo0pviqO71WnpTujpDXvlSMfxqTvtp8T5LHrGsycROW0gofj3PF154Ydbfd+8u/cFHPfO1tHoWASNKPYt/U+eOoJcQksBHyDN7C2fQ2DDFDq2QZs9hXJYzSmmMIF5awlB88kTDgpaq2iU9lQ+jVtLTgRpfjr2P5M85/OfxSrHQMgfpUH/ZtjBA4qe/kRFRwi/813dIGlo3/Dk0SHANhuDfDI7BQvsonXPOOe7Agc577PREGWWf9I+3PtUpezRE0hLRJikbJcgL7RCS206JfH2Dxoi2kI0S7RtuHIr9GH1W7aV+C+lV3wi/fqQ92Qi21KE+AOkqFY5nqb910bucslEaNfEtp0P9TfcsbeGXp1HSe5MiSuBMfTlU/pQf2tfQ0Q7YFjGpEI6UgfeX/7YLHZtcalNXwlBPvobjna2UjIbpxte7du3K+vrQoUPjx3bfxggYUWrjxq1H1RDwfBLM4IE2g6/CijriIqz43yVsmjQLLBKfL4cYPBjYYo1VkfiNCFMLFtWWB8LEV1t89s2XWJXgX22elcbbs2ePmzdvntu37+yu2ZXGr3d42SPRf7BRYoCODwZUDvnH9/LnzFdfOPa10qBPeAZ8EaCwDrSRtFd8AYrWI3RoAokPAVB7isSoHLWe+fgCh6aSpTMtUTH5kIaS55qUFMkvJkp8UYgGTRMa/pBWLtweoEjaIVFi6VlpKi6a7XLLlfzJsfayUjzSCcul8lVznjhxoidK5557rjtypLMWvZr0LE7rIGBEqXXaykpqCBgCBRBA48kACYlhGRgSUsshTR9Lo6QLQYIIoblKOZZ+2NYhRZIUnqU7NnHU8i5aIJaX63Xoi07IXUga2KQzdCJKfO6fd/BhAWnEREl/b8IzNGzhV5iQFvzR9KDVyTvQLhOOrxPlyAc/yBGaoXLaPcXTmb+3QfssrZ/aT8+rPffr188TpWeeeabaJCxeiyJgRKlFG86KbQgYAvkI9PQeUxAg2eelSil7tNSzevuhteJI2e6g+dGXgHn5YvOFFkzLjAqHLR12iyJ78teZDw5kIya/+Ewa2PNxlmNpUDZ88qv2jGY61KBVmw7xLrjgAnf++ee7U6eKa9Vryc/iNg8CRpSapy2sJIaAIWAIGAJNigB/19MMNnhNCk9bF8uIUls3b/tWjhkyM9miR3d8Oty+aFvNDAFDwBDovQgYUeq9bd+yNeevKLBhqPR4r8J/GW9ZgKzghoAhYAgYAnVDwIhS3aC0hLoLAWwOMFKt5MAOop6fCndXXS0fQ8AQMAQMgZ5FwIhSz+JvuRsChoAhYAgYAoZAEyNgRKmJG8eKZggYAoaAIWAIGAI9i4ARpZ7F33I3BAwBQ8AQMAQMgSZGwIhSEzeOFc0QMAQMAUPAEDAEehYBI0o9i7/lbggYAoaAIWAIGAJNjIARpSZuHCuaIWAIGAKGgCFgCPQsAkaUehZ/y90QMAQMAUPAEDAEmhgBI0pN3DhWNEPAEDAEDAFDwBDoWQSMKPUs/pa7IWAIGAKGgCFgCDQxAkaUmrhxrGiGgCFgCBgChoAh0LMIGFHqWfwtd0PAEDAEDAFDwBBoYgSMKDVx49SzaBu37nKXDXjIH/3/MMon/erspZnfc6/Or2d2LZnWG/Pez/5o9/cPT2zJOliha0PggWemZu/Ewj+tdWfOfOV+ct0j3o/z4aPHa8ugh2K3a72uunF41l679x50az/bmt3/bsj4HkLbsm03BIwotVuL5tRn/8GjGQn47j/c7UNBlP7sr/r547HnZubE7D3eJ06edmvWb3EQyVseeLH3VNxqmiHwL49Nyt6Jee+u9v4X/HhQ5nf6yzNZ2Fa6aNd6feeqwVnbHDl6wm3dsTe7h9iaMwTqgYARpXqg2CJpfOviAV6IDLhjtC/x+6s7MqEy/a33W6QWjS/m7Y9MNKLUeJibMofnX1uQvRMdn+/0ZbzyN496vwsvu7Upy1ykUO1ar2tue9q3zXnfu8HD8OWZM1n72WSnSM+wMEUQMKJUBKU2CfODfkO8EHl49HRfoz37D2dC5aNPPi9bS2bTp05/WTZcPQKg3UHodYc7eep0p2yajSh99dVXLi5jpwLn3Jw4eSrnSf296RuVtlelbZzCoGh/JC44lnMLlq7N3gnlxzIsmtefDRxRLnrTPq+1XmB3/MTJiutXaRuTQSV53ffUFN82ffs/mJXt25ff7v1Gv/xW5mcXhkAtCBhRqgW9Fot7/V1jvQB5bc7SrOTSMh06cizzCy8WLfvY3TR0vGM2rWU6liLGTJrXZeAZPm62Y/bNge3A9p37wqTcpxu3e3+FIQ05BtqXZ7zjmCEyO1ReLBMi5PPcrwc/m+WJjRFu1ceb3K/uHOPToRzvrVzfJfreA4cdQlaqe4QrBIklynoQJWxZfnnzSF82yhI6yikMZC8WPueawQI8+t8+KsPjL3840N356CvutodectJ2xPE2bd3tMSQsGIIlGKz+dEsc1N9jh/PTGx7L2gxPBrcnxs9x3//FPY62xr4lJCQ33z/Bhx818S2HVpJBSu1FvVat25zMq5I2Pnj4WIYf2hDs68jj4ivv8HYocxatyvok/TNFClmKGfz4JKeBk77+o6vvc+onqUKCH/lQb7lnJ73t/e56fLK86no+cOCAGzRokLviiivcggUL6pq2EqumXryv9458zfcDtS/9ifeD9km5Sto4jF9NXsTnHaFsoT1Sv0FPer+5iz8Ms7BrQ6BqBIwoVQ1d60XEDgmhsnLtpqzwaJmkts48gwvW+SEvDFYMthCnoU+encWNGD87COkcgy7EhmPs5PldDF8hJ6NfmefJyaXX3O+Wfbghiw+pgrQwCE+Zu8x90rHdzXh7hRO5C8NmkZxzk2e955g5EnfY2Blu5IQ5vo6QA9JhEKXO4UB/4NBRH54BlDBo08gLYoAfmoNa1fYMGBjIUx9IS+g+/mybLzN55GH/4KhpvtyDHnjBl23pyvWO9oMoUJ/UIIAfz664fpiDSGDYip2NBg4GldhBuMCPAZG4n2/f4/OgXI+MecPjw/UzL72ZRQUziAv+xPnDIy+7xcvXualzl/m8ISTYisSukjamvcBP9kHkR/+ibUTuIXDUGXzjulEP/CH4PKPvQpjvGj7ZlzkcWMNy0m7UCfIoN/+9Nd7vAzcedgAAIABJREFUhamL5FXX87Bhw1yfPn38ce6557ovv6y/1raaevGeQ3yZANH/kBu8X7QJ/ilXSRuH8avJi/jIBdrryRf+mCUn+bRh847Mzy4MgVoQMKJUC3otFpfBa9izMzotkaCtYYCr1DFIpWw2EFihESXLe7Pmf9BpBgqpeXHa4sJZogWAMJRyslVAaGKkHrovdu0Pb/0gTxnjpQQGE6VTK1FShgzuMVHSs3c/+DSXKIFtSoPBQEQdZWistKgjBIJBIuXQ3hEvRWAIz4ye55AfsNm971CWDNqDY8c7L7sMGfm6Dx8TFJarSOOpF+dm8Ytc5LUxBAniffTYCZ8MJJNyog2Ue3TsTE/QdE87MgFA04V2LHYrvrbNo1+m3MTpSzqRePrJQ6OmO/pyI9yECRMyonT++ed30dTWK8961YvJEm2wc8+BioqW18alEimXF22NKUH4jnds2ekef35WqWTtmSFQEQJGlCqCq3cHZllq38EjDuH0zopP/MAcI8LMEyFKGBwCi3s0UjgGXO4Z8PIcn2QzUDNAswSFIGQJqpTTkt0HazaWCuZ27T3o888jDNQRwtHTRIklRQgWy1ix7Q8DfUxcICZow8Arz0E67n96avKxiBKaFrVdMuDXnhAlME85lgfRBJZyRduYMoeaHPoE/SccGF9+4x2/pKb8WHqNw+iZzmgfIVPN4E6fPu2mTZvmhg8f7rZty38verKsEFXeSYgn/QN812/6omSRirZxnEg1ecVp2L0hUE8EjCjVE802TIslFQYrBGN4oDWAUMROREg2MVoqYjaJE5GKB3+ELzNehQ/zIp8iRAnNQjnHshEarVKOZYWeJkoQUi2ZgQVlxp4Ju6CUPY6I4s9vesLlHRAvnqWciFLqWcoPojRwyLjUI0/GUkSpmjauhiiNe/3sl2t5OOCPlirVf5MV6qWeLMtC2MEpfB/pR9yniFI1bQy81eTVS5vFqt0DCBhR6gHQWyVL7bPEIAxh2rxtt1e3ow1i6S1voGEQGv/6QoeNAAKVZSLO23bs8wN9uDQnLBh0CYMNCRoTNAYcXGMUXS+ihN0L9lGlHPn1NFFS+TBIxoYKgnf3iFczuxuWF0IHMUGjhBF2qWPam8vDaNl1dxClatq4GqLEciB9qRQOPMPuKibsGSC9/AIbQd5v7PYwfocUsaEjhGbm2ys8vimiVE0bV5tXL28iq343ImBEqRvBbqWsWMJBa8QSRcrlLb0RFuNeBm40PFreQFPE8hCkC5IVOoQvAxvappQruvRWRKO0bsM2PwCkbFfIm4ETY9WeJEos/+UZr2MDhMYr3jkcI3nsmkotvaWwlV+jiVK1bVwNUUKbSX/asbsyGxphYWfn2GuNjwJSRDJv6a3aNq4mr3q00cyZM90tt9zij7FjSy8V1yM/S6N1ETCi1Lpt19CSQyQYbPjiJ3ZoOVgGytMoYRwO2YAcMYDj+HIGTRNq+/iLLbRV5JX6ewg+a/bLTgVslIoQJRHAPKNnvgCjLPUiSlpqjD+nBkOW1iCjsUPrA7apQYqwGBbHWjG0b8RBU5Ln+JIszzar0USp2jauhiiBGwSdLx+xk8lzsVYuL1yj/bFLuvTSSx2G3OPGpZczG12GOH36V+od4f1h+Zd3JNYoVdvG1eQVl7ea+4svvjgzosdGzJwhkIeAEaU8ZMzfq935ckgCESLDMhqaCwQlAzOzSOxpQsen2TznkNEt/zUnv/CLKuIRn2fsz4J6H4fRNUa8ioMWhTRCI2YGfpYDIVN8zo0hMgO+Dpb+UhoWDL4pO3/roP2jSJfP4ckPMsdSH+mm7IHCupa7ZisC0mTQIS3yYUBhmQx/ygG+ISlimY1n1Ik6qw7M5F+Z+a5/Fn/1RjkgWMTzOAZfrbEtA3Y71CvcmI844E099Qk8yyDCjzPardBRFggGSywsUcZlR4vDlgy0F/1Arpo2pu4s/bB1gfqFjLnBUH0BY27wpC/KUUawpRxoEeWI8+aSjzyRAiuloec9cb7nnnuyAfucc85xGHf3tMMGDfzQbNI3edf4sAA8wY2DLSjCL9+qaWPqWU1eteKzf//+DPOLLrqo1uQsfpsjYESpzRu4luoxCIakSAKSgVh79uCX+voJTUk8KKNRQtOUctg9IJhJj7icucemSAQGP+7lwr9l4FnqyNOgsKdOSFaIC5HAn00KlRakpVaHzYzqpnQhGrMWrMzyCb/Wg7SAO7ZcCh9iEu9fFZaPgU1tRhzly5l6xZ+467nyic/xtgxbvvjmv7QUNtxgUpjyjLRDjU4lbQyZVvqc0Q7h0MTJX1tMQJTkFw7cbKUA2eQZZaF9Fe4fb32q5JeXIaaNvp4zZ042aF9yySWNzq5Q+hDIEDvhBlFCLugeXEXkSbiSNlZBqs1L8as5T5kyJcN8yZIl1SRhcXoRAkaUelFjV1NVtBhsNMeeMwyIlWhYQgFK3vF9XB60OxCV2QtXeu1AqGWJw9brnsGUmTFalUY6cEQLApHRnkBF8oPoEQ/8IVOp5ck4HXAmHlon9qFpJludnmhjNB3sWQW5R9PUHf0qbpNy9+vXr3eLFy92p05139/OlCsTz9Eq8n7wXqIdLeKqbeNq8ipSnlSYa6+91hOlvn37ph6bnyHQCQEjSp3gsBtDwBAwBAyBdkeAHdDZDX316tXtXlWrXx0QMKJUBxAtCUPAEDAEDIHWQED2SQMGdN0HrjVqYKXsbgSMKHU34pafIWAIGAKGQI8isGrVKnfmzNl/D+jRgljmLYGAEaWWaCYrZE8hgL0PxqaVHOx1ZM4QMAQMAUOgPRAwotQe7Wi1aBAC/DGtvvCp5GxkqUENYskaAoaAIdDNCBhR6mbALbvWQgBNEp/EV3LEew+1Vo2ttIaAIWAIGAIhAkaUQjTs2hAwBAwBQ8AQMAQMgQABI0oBGHZpCBgChoAhYAgYAoZAiIARpRANuzYEDAFDwBAwBAwBQyBAwIhSAIZdGgKGgCFgCBgChoAhECJgRClEw64NAUPAEDAEDAFDwBAIEDCiFIBhl4aAIWAIGAKGgCFgCIQIGFEK0bBrQ8AQMASaGAH+cLbIn/ou/2iDe3TsTLf2s61NVZt1G7a5URPfcguWrs0t14OjprlnJ73tjhw9kRuGBydOnvYbwZYMVMeHp05/6V6bs9TdfP+EQm1Qadbz31vjbho63o2dPL/SqC0Rvui2KW/Me9/d//TUbm3bcgAaUSqHkD03BAwBQ6AJEPh8+x73lz8c6H5580h3/MTJkiV66sW5fqPUwY9PKhkufjh38Yfu+7+4p+KDwa2IW7x8nS/XBT8e5E5/2fUvRCB4bOz6rYsHuFIDKyTpiuuHuQsvu9Vt3bE3y3rfwSPu0mvur+j4dOP2LH6pCzAnP8o37vUFpYJW9WzOolU+7fO+d0NDiFhVhapTpHnvrvZ1e/z5WWVTvOrG4T4seFTiHho1veJ+S1/fuHVX2WyMKJWFyAIYAoaAIdDzCHyxa7/7zlWD/SDyo6vvK0kkIFUM6BCSStzLb7zj4zFYf/vy28sehCOfkRPmJLNBC7N52+5Oh8jGc6/O7+RPOAYu0nvgmaldnoWaNHa+/9WdY7KySnO2Z//hLmUmv7gu5KFj9adbkmVPeS5dud7Hg8hByipxO/cccMTPO9794FNPECkX2OSFw78ouaukfI0MS5nBjLrd8sCLJYngKzPf9eEGDhlXUZF+PfhZH48+H7d36l7l+WDNxi75fPzZNnfNbU9nhxGlLhCZhyFgCBgCzYnA0WMn3M8GjvADAgSAHeMhI++tXO/eWfFJp0MDwZS5yzr5E46BK+VElEa/Mi/1uIsfS1EMfnlEiaU2EZJazyli8thzM3361JV6xY5lPAbOJe+ffcZO+/pboouvvMNVQpKU9p2PvuLzZAmuEocWqlYMFB/C3GquY8vOTCMnrejBw8e69M2Zb6/wOEHC4z7NPX0q5USUirbp74aM9/mkiNLshSs7tZURpRTi5pdEYOrcZY5ObM4QMAR6DgGWrP7x1qe8IL/+rrGeLGkALXqGWKSciBLLV/eOfK3soWWSPKIEuYFQYHsTHio/JEb+Ina654xWQfeQxJR7/rWzBISB9cTJU52CoJlRuv3/MMovXYIRS5JxWCKitSu3dCetHumUC4s9lpyI0k+ue6QsrnnYU27ybQaiBH5otsrZkqn+nHfvO5SRpZdnvOMmz3qvEyEp0n/7DXoyTDK7FlFC05iHX+gPUSa/FFHiHTt89Hh2GFHKYG7vC9ZhLxvwkD8QGLhXZy/N/BAo5dx3/+Fux9FIl7JbaGR+zZy2YXG2dWbN/yDrpxqQGTDUn5d9uKGZmzG3bCwvqQ4L/7TWnTnzlWMQxY8zgjrPoUUaPm62H+zRkpAWBrB5hwZYSANhho2dkUxaRKnIgBWGUbskE3XOofmByKzf9IUPAiEhfjjoIVvwk8NwHSIFGSznJkxZlGmHPunY7jCM1jFx+pJOg/Htj0zMnhHmo08+z5Jfs35Lp7BhHau5/sMjL2dpiyhhqF6to60pR08TpWlvLvfloH0oz+iXvyGE5epG22u8QfuT12fl/9MbHsvqjB8a0pQTUaq0nVJEKU7fiFKMSJveYxipDiSyA1GSH4KsnOsOooQg37B5R7mi9Irn/W8f5V6ctrhX1LVUJWXkSl+9e8SrPiiaBvXdViVK//LYWe0A9cDYFaeBB79KiTLveN7sXhiy3FDKiSg989KbDjugcgdaAcpajihJ1miSVoQooYki7UfGvFGqyF2eKR5xixwsA8mBOVoPHb9/eKJPA2Ipv9R55dpNPhxkcMfuA2733oP+CLVWMVFatOxjB0EuetC23U2UaCeWzEKnttN71/H5Tq+1W7VucxisouttO/a5r776KhlHJJ9l3lJORIm2KNdveX7D3c/5NjOiVArVXvhMKugBd4z2tX9/dUcmSKa/Vf6rFbRSRb4QqAVaBFstL1wteTdbXGZSoeq+2crXXeVBQ6ABT8RxxPjZmd+uvQe7qyh1zUdLRtSNwQZ35W8e9fXC/qgSFxoxS2sTxuedJx8G51JORAnyAAkqd7AsRrrliBIEREbc2JhosM3TKGHYTLosj6A9q8SJKI1/faEnoJBQNDukB/HhnkPLPiFRivPZtHW3j0fZ0fjlOTQdpD/s2bSmjngxUSJ8JcebSz7qNqKENm/ok1N8+dDAhQ7SzReHoWPiUu22BhqHfn7TE458QwfmkE9wKqVhJY6IEuUu1295zrIp6RpRChG3a/eDfkN8x3h49HSPBsJVL2qofq43VAjJ8IuVUulTnlqIEp8Nd4ejTpUKcMpFPI4irjuJErO5uFyV1C+cORepG2GY1RVxmkXTN2SwK4NP/FrVsZeQ3j9hIQ0GBtux42sh3uHwYCaOw34H0qH0WK6U42sr/JkoxW2sMDqLKCmdouc8osTsXl9vQVYgPizbUD7S7tv/wew5Wx/gR3iWVyAnbHOg+Ayociw1hjhwLbkhohQSRrYvIG0RbdLZe+Cs/CtFlAjHc+Ji4JtyyBxNQish7UyCqF/eoXqQN2ShO750o39A4KkP2k3sUmNND5ok2iqU6ZAOtIYpB9mJ2wrbNjkm33yVRj1p87Ce0oSWayPSElEinUoOI0pqCTt7BFjrpwOFKky94DGTF2QITma5OhDkpRwvN2ERAgg2BKE6Lf4SZmEavCi8ODwnLEt8yk9nBGOeY28W7DpUF15wZjgQwZRD1Q0JIW29sAi7J8bP8Z8nE5/8YqLAbJwZtGbGlJWwYybN6yJMwnwRKKzhywaDeAgGljuZ1YYCBqHCkhtlk7ASBjozIJYb8ML8U9fYbZAeho8Ias3aUHOj4meJhHJiC4EdR8rxJRHtLTwoLwKNL41mLUgPKrQ1M0e1FQL0yRf+6PNU/VCJx06D6PadZ4kBn4Orr8Rh63U/YsQI17dvXzdmzJh6JdkpHWkr6ENy2K9QL77Mih3tDm7CjnDhFz4MaPoKjGdDRr7uBzMNuJogxemG98zaV6zuqPhguSl2kGfKUa+DesvRR2Is9GWb6qvnIV6UJfYvNwhDzolHX025eFkxFaYSP74EkzaHfCGYefK5knTLhWUPLd5l8EEm5E06kT1gAZmH0DKu0Ifzln2lFRLuaoOwPMQNiT4rHOQjAqUJUhgnvkZLWU3fzftIIEzfbJRCNNr8WkKUWZ4cHZ5BMs/BthnkOXghmBGWcrw4kBYNvLzkEBlmJqhreVnCDeJI68Cho47PkcmDlwjbDeWps2w44rwhNMQZ9MALPh8GDvJigCevcCBRXJY5SJcvIIjLnjPUizJjD0EduMZOI3QY2LK3BjMu0oU4SaCxFJRyaAogi6SHASMb6iGQwEWDP4I9dMx6KR9CAmEkDHTmeTzLC+MXuUag3PbQS77+YMCygD71BjfyVjkRguHskfQhm8RjkKE8pAcukB38UwM9M1GegSPLCJBm8iU/GWze99SUpLEmcYiL0MUh3LiXzUuROlcSZvny5a5Pnz7ZsW7dukqiFwrLQEAdqLscpBS/F6YuklfyfNfwyT5cqn/zroAp6fB+c+Y+byCjHejz9Tq0PE/9eD/rdcTvo4DBqJ06xkSJPkP/4GDfKcIgF+RH38WvHFEiH+QDYZlghA5tpyYKvNu1OmSK2o49pRqp6VdZyQOZTf3Y+iC1DYPC6kxfgngz6aEvYrcFFkyQWOYtZYDPhJE6xg6Zxm7ylINDbYZMyXP09Xr1W9IJl/eQNdSTw4hSXgu0oT8EhTX0cNBD/Q+xKOJY7ihHlEiHmSwdnXXg0EEaIAzMVvIc8VJap1R4XhLCp0gUdeQTZAQjAjvlUPESnzIhVHnZ5ZjV8eIXcQwECMuUQ7sCIWL5I3ao/nkWEyWFa/TSG3vvUH8EhByzOvDQkg67ERNGhpsKBzFF4MUOrPGX0bWekw6E67f3PN+F5KGN0OCQ0kyQBjYrcX+CeBbtKypH0XNHR0dGkiBM27cX2725aPoKx8AbYgtO7DCcpw1VvFJEiTBMBjSA034MQHlO+wIRrh5HXl4Ym1OvSo5Su3OrPnlEqV5Lb+QjY23wCQmRPiqQ3afKVO0ZMkgeTGJCOV1teqXioYHRKgPvfWy0XSqunkEsGD+QtbzDTOzQkpdqtzyipDSZREkegEX4fiiMziKw9ei3pBHuL8amk0rXiJIQt3NZBCohSmheUg6hXGq2QccsOvixbMaAneekdUD7kXIiSnwJlEemUvHwQxAw8yIeauHUDIkZCfXBJiPPYQDJ0l3KdQdRghSFjqU3lhdDRxi0gqGDtFC3GW+v6KKiR6MQaw01Uw5nbJ3S+3pH6DyiFIbtrutly5a5Bx980K1Y0Xx7h5UjSvRPaZNoJ9owJA4hhrFGCW0WuyOHM3UZKzPLD/1T16kNAUM7M8pT9Ij7Z1huXecRJQZv3m0OaUwYpOWnnb2LaJTIC82psIRkyO6JCUCRpTFMEcp94SbjeEwcyoWtxi5QmLFRqchIKQN0hQ/P9C3IEKSINMAZspT3bodxuS5HlFhWp93VR9DI52lDY42SNONhv5TmEFIb+qeuw8myiBITDiNKcSvafS4ClRAlOmXKIXDrRZR4SVkiQv2bd/CysWSVciJKqWcpP9lC6QXWmZc6RZSYoRGmiBBN5dfMRAmCqGVP6ogwoQ3wYxCJHTZrGHzmObVFMxGlvLI2g38posQgKNsO2kXLofRR9gkq57CRo01DuxD9BxvkohrHQEeakAqWt4sclLcWokR+RY6iRIl6y/4JfCkf6YdG5qWwaaT2o1S+ec9416QR493Vl5d54eXPJBgNGgb5EGAmjCzDgQ02drFtp+LpXIooaUIFrsg/aUUh/ZholHLIJMni0O5IRDpeNi2VFs9ElCCvRpTKoWXPMwSajSixbIVWCSPsUkeoKs8q45z/uoIXsoiTwSZCAsLE/1KxnMbLBDlIEaVVH5/dW6VSbZXK08xESWVkORVNBV8EseQiIYh9U+jQUrAMmufQatAWRpTyEOrsnyJK9DNmyZqNM7gwiDFwaVZNPy31lQ8kl3bgCAcbESU0SmhIU0cpDYeIEkvcRR3vdy1EKdSgSfuDVkiu6FdvCs+Z/k4fF0bxEnMYNr7GDhMbvFKHNF9MKkqF4xm2lfVwkGfZAKLJApeiDi0S5Be5yHYM9A99IJOXhmRE+JzJJH+YK1whXSw9Ig9ElpAfocYnjM+12jiekIkoQXhS/TZlukF6RpRihO2+EALNRpQQ/qWW3spVSlqMcuEwMkRg5+1mnLf0psGhyCw+VYZmJUrgEROhsPxoC5hxh06kMRy8wueyazOiFKKSfx0SJQgKgxQDlgYalkVCGzsGePz0HJuvlMOmjjAYEodOREnxU+eUHZ7S0LtAPMpR5CBsI4kSGhTyqESjBBGVJom4XLP8XC8nGyWWkLrbQRikKWO7h1LEV2VjAhSSX2zswCT1kYHihESJjTkhfSGm8VIg5F19G9KU0liTNgSJNkGWhE5EiWepgzRTzohSChXzK4tAdxEl9s4o4nix6filjP1YT+dIuaJEic9kySf1mTwDAF/R8KKnHOvrLH3kfaWGsEb9jfF47FCHY9PVKIcxdzwQFbFR0r48KVsUysrXR+AVC1oGR4RkPKDypYwEWLMQpTNnzrgBAwa48847z914442NaoKq0mWmTd8AM+xYWNYUfizvMLPW14FhBvRjyDdh6Zexoy/TH5RWuG2FiBIEivaKD97ZUsbHIVFiMC5yUI64f8Zl5r2SQbI+StHyWEjKpW1Ao8QyEdoq1TNvAhTmhQxBa6I45KGdnfFjSbLc0lCYXt51TxIlyoRWkr+DAXcwghjmyS7CQ2r4ejh0aDJjm0Y9B0dhj8wLyTt9M/wiW3E483GJyBLtFzu0pGobzmHbiyjRXnG/5T404A7TNaIUomHXuQgwI4VM6MDWh06ue84hu+eFwi6HgZ9ZGp01FJ4Mgqg/IQ55amNUzwjjsKNjGMwMB3+WvELHJnyQFNbGNTBTDsJJS4GGI3TMYtjDRp9is/NzWKcUsSJvBheVC5UzRE1qYcoA6Yk/rdWsFYEQ1hnc9Cks6TLjjx1CiJeeF1nLdwhjDCmZxSH8q3WUXwbZYTtBlPgCBjsXOYQmRueytaLslIu6h2UjPPcItNSSBJvxIUTBiq96GKBQ05MW6XNuFqK0cOHCTl+9NYtBN4RDyyTgBZZo92izPIKkduTMO4I2Ku7jLM+xfQdp0h9lT6NJi4hSrTZKofYhLFfqGllTiihB/LSkSLk5WFpBQ0EfDGUT/RKSzsDIIE48DgbRGIuwLLx3aIwoB+lzDjfz5Jo24JmIhd7VMJ2i1z1NlFRO5IMM+NmuJc9hUwQm2mhThAUZGzvkjMgOeNHHkMG0Qx5BCtNAJqHxjCcBtLPIl0gzsgm5jhNRMhulEE27rhsC4d9E0LFTB0JCG5PRkeMw4RdszCL1nHhxh6fgEAut00s4EYcXgQ4fCyFIEZtihsJKefCyQO7iOAqrcPE5tZzHSx6SIsVhe38GKt0z64wdLyxEizDkrfypE1+8pUgSaaDG1l9PhPG4ZkZb7hPyuBzhPYRIZebMPkg47S0F9nJqB2m3mAlShnBGTRjVi8FUpFVp6ExbMKtHoDGDhCyhpidNytEsRGn37t0ZUTrnnHPcgQNdt3dQnbrzrP7AoK990cANOzk0fHm4x2XkvdH7x7UGGNpw+859/j1UezKQadJRK1Gin6ABK3KQf9gP4zpoF3PeS7YcUXnxZ+CFVBZx1D+c0BGH9506q++DMV/LpbRGkARp6gjHe409UtH8wzJqctQTS29hOXTN+xhPTvVMZ/UNyUe0ULHD3k3P0cBL60ebIQ+YDMdyOk5D92FbITdE6nknSAOyTDtwIOfov1wbURKCdm4bBHgBICAsq8VamlQleUEQbhgVM/slfr0deSCAmUVCAIsOSpQDYYwwQAvFASEsKhggUixnsczCIEZazeJoG/BmWZZZe7ysVrScqNYRZqWMNYumVa9we/bscfPmzXP79p3dDbxe6Vabjv5ehMFb/RvMRRA0OHDGj3DhgV8YVoNxuHQX2tugddWmf2HapIlmgAGKCYAOjG2ZDKWWwsOltzCtctfklXK856qnyDVa4VBjobSLYKEJDhoOtJ6KyxktWPgFYKo8+KGpklZOZUO7Ve4rMCaADOgc1Je4vE+t5GgDJlvql3HZ9fcioaE3ZDLEWZgVaS/aGqelO+KEf6YuTVecPvhC2OirtDN9F4LFPf05tOuzpbe4Fe3eEDAEehQBlk7zBsUeLVgTZc5MHcEPYQ4dwp1lVDR+DEQYtYYDAAMBg0B8yOAW0s5Ak9IEoHXi83c0s2hq0JxAnhhYGHAgJmhQaDsdqaUsESUGJwa0IofSC+uqazYlBAvZJcmfyQd/f8HO9+zvg3aaPMPBUINiiIe+htMmrOTNMk85bYryDc/giuaN8kGyyk1sZG+mQZ3yhQN2mHarXstEQkt0qgfLZvQttHWQzJi8pNpKmiPSoP3puyl7STTyTEohopiD0Bakr75Lvw37bmy3Z0RJrWRnQ8AQ6FEEmIGiEmeQ4PNgc6URQMvTCJdaUqpnPiyXoIWFlBV1bDxY6ovRRmFBOcPlnaLljcOhQS6iYUUryyatHEXCx/m0yn01pLNI3RrVdyGraMvpZ7aPUpGWsDCGgCFQFwQQPswANXvWOe+/8uqSqSViCBgChkANCBhRqgE8i2oINAMC2EBAQCo5yi0HNLJeaArYV4kD9TblNmcIGAKGQLMiYESpWVvGymUIFEAAexBpZSo5x5u6FcjKghgChoAh0CsRMKLUK5vdKt1OCGAQydYMRQ/C521J0E64WF0MAUPAEKgHAkaU6oGipWEIGAKGgCFgCBgCbYmAEaW2bFarlCFgCBgChoAhYAjUAwEjSvVA0dIwBAwBQ8AQMAQMgbZEwIhSWzarVcoQMAQMAUPAEDAE6oHF9Tu4AAAgAElEQVSAEaV6oGhpGAKGgCFgCBgChkBbImBEqS2b1SplCBgChoAhYAgYAvVAwIhSPVC0NAwBQ8AQaDME9h447Pivt3KOv/vg72cq/Xf2VLrsCzbgjtFu2NgZqcfmZwj0CAJGlHoEdsvUEDAEDIHmReCTju3+T25/efPITjunT571nv9j0d17D2aFZ08uNjvlD0ZD98GajT6NV2cvDb1LXvPnyKTFn8qaMwSaBQEjSs3SElYOQ8AQMASaBIENm3e4Cy+71ZOW7//iHidi9OjYmd6v/+2jspKmiNLpL8/4f2mH9Cz809osbHgx9Mkpnkid970bsnO4u3zoH17ffP+EMBm7NgQajoARpYZDbBkYAoaAIdB6CBw6csz9/KYnMm3Rpxu3O/5X8DtXDfZ+by75yFcqRZRGTpjjw/x68LO5Fb/lgRd9GNLr2//BsgeEDSJ1zW1P56ZpDwyBRiBgRKkRqFqahoAhYAi0AQLYH11/11hPUAY98IKv0UeffO7vWWo7euyE/zscCIyW3jZv2+2ff+viAQ47pzwnorRy7aa8IJ38N209m64RpU6w2E03IGBEqRtAboYsNm7d5S4b8JA/+v/hrNoc2wH5Pffq/NxiokZvR9eu9aq0ra66cXjWD1hiWfvZ1uz+d0PGV5pc04Svtl5fffWVa8e+UW2dMOh++Y13OmEyfNxs9+Coad5+KdYorVq32WudytkmiSihTcImqdwh7VYpojRr/gdZ30WrhRv8+KTMb9mHG5qmf1pBWgcBI0qt01Y1lTT8l/nv/sPdPi0EmWwCHntuZm762CO8OG1x7vNWfcCMF1uM3u60lEJfOHL0hNu6Y2/WL35y3SMtC0+19Rr/+kKnyUTLVj5R8Ere4xHjZ7ufDRzhDh4+1iUlltyQHTpenvFOpkGSn86Ll6/rEl8eIkq8h6ENUqnrcktvcxatyvru3SNe9VkNHDIu8zOiJPTtXAkCRpQqQavFwyKQEDR8fot7f3VHJkCmv/V+bu1+esNjbtTEt3Kft+oDsGD229sdM3SwYIDCsdzCPQeDWau6auv15At/9CShVeudV+6i7/Hho8czQ24MulnyCl1IQNVP8s7kmedElOq59MbXeiqLJneQPvntCr7WyyuX+RsCMQJGlGJE2vj+B/2GeIHx8OjpvpZ79h/OBAh2B3muqIDNi3/i5Om8R7n+xGHArtSdOHmqcBSEZ3cRJZY9WNIJHYaxRRzxWN6oxJFf0aWW+56a4vsBSyBy3778du83+uXWJcjV1qtWolRNf6etivYHtRHnSvKq5D1GA82yPO8ItkchWRJRom+Me31B8nho1HQftwhRYuKGTCp3/P7hiT7NUktvx46f9GEo9zsrPvFQzXx7ReYXYmfXhkBRBIwoFUWqDcLJKPO1Od/sayItE1+4hA67BFT1V/7mUUeYC348yF9zr6PfoCdzB2MMOhFoaCkkbLFB+GLX/jCb7JqBAhV+GId4LBMuWJr+vFiRl7z/ieOTYX3OTHnZ/wUbilkLViqYP2Orhe0KdVD6qo/ODzwztVOcam5uf2Siz4MB47f3PO/zAguWJFju+9HV93k/ytKxZWeXLCBH4EEbhBje+egr7raHXnIdn3eNQyJ8iq20qR91YjlixeqOrN1i8qOlk9AeibYl/tzFH3YpWz081q1b566++mrXv39/19HRUY8ku6RRab349B286Ef0IfUHnRn012/6oks+eLBkiS1M2AevuH6YW/5Rvk3MomUfu5uGjs/igDfv2ZhJ87qQ6jBT2n7IyNedvgIjHpMgyo/2JHS1vMcQN9kFkb6ciBKkJM9t37nP958iRInyV3KUIkqUB2JHepQBh80d9zI5yCuz+RsCeQgYUcpDpg39sUNCYISqbgSgllziKqO6ZlBFu4C9AtfhwfNYS0Ia895d7fPBvgXjytWfbnFvzHvfD+AMQO9+8GmclRdqCGAIz5S5yxwq9Blvr8i+uMmzLYAYUCeIEeWBEDz/2gI/yOF/1+OTO+V14NBRN/qVeb4ePP+XxyZ1qhP1o/y1OurLAEseCG4IhzQcInIQQDCCwMYOkkdcvjQCh6Ur1zva7+Ir7/D+KQJD2YnDzBuMwUx5SjtAGNIKHeGIhyZFjj1u8GuUDdell17q+vTp44+///u/V7Z1PVdar/nvrfF9AfJKnw/7OtcQmH0Hj3Qp4+fb93iCA8mBnKGlpA/dcPdzHsNnXnqzSxw8aHsGffor7wjESbjHhEcJ7Nh9wL+vkCSMlakj74vscFJkoNr3mDzRWEH0Q4IookQd6Uupg/5P/ylClIh//MTJsoeW1coRJXAlb+0qzpd53Lej3Zn6hZ0bi4ARpcbi21SpY6Q77NkZnZa0GKynzl1WspwIu6I2Snw1BRG4d+RrXUgUS2kQIYgDhKWoQ0OiT5PjOPinBgc0VPjLoDOOxz3Cs5FLb2ANFhpkKBOklCUuLbMwSFAOnoUOzURM8niumXpM5jSIvDLz3TAZfy0ySZopR94se4TaPrRc/C1Fo9w//dM/ZUTpt7/9bUOyqbZelSy9MRjTnhDRlIYF7S3tyy7VRR0azby2mvbmcp8eS2OxQ9uYehcUrpL3WHFSZxEl6lXuKEKU+IKOCVW5AxlEfuWIEpMECGvo+Kq3ke96mJddtx8CRpTar03rXqNKBCxaDwRpPPCrUMwcmXnzVwV5jsFn975D/osbNFYM4ixBpZyWV9C6xPYaLLNBDvMcQreRwhOiFM9iwQYNgBxlpByxDRIb9UEoKV9sq4XWLB6UGVwZrPMc6eUNvnlxGul/6NAh9+yzz7rnn3/eHTnSVUvTyLzLpV0JUZLWatuOs8s8qbSxwWEps5SD+KCt4r3BtgaCnXLqL2ie4skGX6iV6s+VvMdh3tj4QAa1jCiixNeBvH+pA/JDvy5ClAhXyVGOKIVlt2tDoB4IGFGqB4ptnkYlApYB4f6nS9v48LUL6vzQMUDwp5paWgoFJ4NGHlEiHiRB4SED2FXgF2pIwrx0TZxSA4vCVXuuhSgxaMpOiHIyOEG6mFWnDNZZGmW5Ls+xvNNMRCmvnM3gXwlRgvCH9jup8vNFKaQ3dnw6ryVR9V/OaB3ziBJpsKzFc4XFFuoPj7xcVmtVyXussjJRETGCoON0H5N1xeEszWcporRuwzbHVgPxgR0f/Tz21z07hJszBLoTASNK3Yl2i+ZViYBFaOfZV6j6GL3GxEc2FncNn+ztjCA5HAhn7I/i8EpLZzQyLHHNXrjSG7WyBMFgkrLlURwGmmYlSiojRsJ8kYgWimVEBlwIT2wADokC1zzHwGNEKQ+dzv6VECWWJ7FFK+Uwpo+JD2SA/od2BMLExw879xxwH3+2zZP8OHycPlpXtKUsq2I/BVEmPbSvea6S91hpYLdFuix/y4kosWTP+5U62KCSeHlEiXRZjqQe4MPkCnKFxpk+Tv1T7yZh+ShES9cqk50NgUYiYESpkei2SdqVCFiIDkK7lLv0mvs9mVEYvuJBqGKvk3J5S2/MdksRoUfGvOGNclNp4keeKWGcF75S/2o1SizDsKSTchBCBmYMtkP31ItzPRFKaZsYjNB6GFEKEcu/roQooeVgUI+XfcPU0fRhYCxHv0VrNGzsDHl1Opdaentv5XoXf6GqyMSjT+ftFVTJe6w0WXIjTQiKnIgS/uWOFFFinybigRvLytgZcg/pw2GrpOfx150Y2vMsZb+n8lV75kvMW265xR933nlnFxvLatO1eK2PgBGl1m/DhteApSwMRYs4ZokIstjYWHHRjPActbscM2r8EKCxY/8WBHNKo8QMPE4rjM+2ATxPkQfC8SwcAMK49biulihhsKtBJFUOthyAbIYO+xQGX760CgdtliYxrKeuzUSUFi1a5C666CJ/LF36zXYVYZ166hoNDX2uiIO0gDsYpxyaP7B/Yeqi7DHtgx9aldihQUQ7SPunHG2Y93dDLIWRbt5u2JW8x+SNNlf9BrItJ6LEu8z2G6mD+hI3RZQkA/iwAxcTJfxYKlbevL8spaN1gjiBN89KTZJU1krOgwcPzj4wGDiw61JpJWlZ2PZCwIhSe7VnQ2rDgI9gQuPDwIvDkHTyrPf8TBmbidDpk3TsN0RSEOIy8Hxi/Nn/YFIc7HFIn72H+GoOx6xYwpZnaFEwZA3tIlia4xmDR1g24nOP0Xipr96wD+Eza32VRjyWM/jsGn+WQ6p1kDj2OyKPMB0GGeqvPwuVcS7LazLo1kDCIMNzNBA4sOerNuqcIqIY2zKIgAcDNwML+eGHdq2ZiNIll1ySDUp9+/atFuaGxENrA8YYK6u/0Y/5QhQSE2sztDzFwK92pa1YBgZ72lFtqALTv9DWqO8xSaBNaSPyhihBCuLtCHjOM949lY006Sfkg+YwNv5XnpW+xyx5U5YJU74heaQlohTmrzx0LmWjpH2+ROhSRIl0sLtiawMc9aIs4Es7cA22qb9YURkqPV944YVZn9y9u/p3v9J8LXzzI2BEqfnbqMdLiN0AX+5IgCOodc3gwA7fscMwOwyn8JCAlOPLGoVHACo8s2cGee45wtk0QpI42q+G58RVOtgyiKil8mQgkjGt8iQNbCQgdSKFqbjl/DSYkB7lkU0FAyR++hsZESX8WHLAMfAyIGo/GJ6pfKRVygaMgRW7GQzBsX+BrEIomX03E1G67bbbskHp3nvvLQdntz9nWUyY60w7sPSzZv2WLuVhqTQkOYTlQBMiAhxGgiClwjNZoK0UP/7CC8IgjRNhKJvKBwGJbdfCPCt5jykf6dPfiBc69e1SRIklbeLHGiXII/7sUyVCJ6LEl6sppwkRZZHTO0/cerhdu3Zl/XHo0KH1SNLSaCMEjCi1UWM2uioIfJazsCVgxhjPkuP8Cc9Geqjm2R1XZCEOp3uWMZjNI0whMRKkel7qDEFAowLhQpuERqeog3AxODHYxTP4omk0KhwaLmbekCiWNVPLk0XyxniYwalZHH1n5cqVbtmyNHFuhnJSRvovfYONN8sRZ5anICos59IXWUYr5UiPzV9pW4hFKVIfpwNJ0bvF+8j7UtQVeY/1cQWTlNjlESWWy1jeg6SLvEEUQ8fkBaKkSQHPxk6e7/3w5yOM8FBePNPkgjholpjQxPslhXlVcj1x4kRPlM4999ym266iknpY2MYgYESpMbhaqoZAUyHA4MVeSuYMgSIIoLWEiKS0xRAZiEusUWKpEn8daL9iAgc5RKscTrIgPRAz8pOGLDxD8NG0sQN66MoR1zBsuet+/fp5ovTMM8+UC2rPeyECRpR6YaNblXsPAmyEiCE+gxfaOnOGQK0I8FUm/SokO6SJpgpNLkdq5/Ba821k/AsuuMCdf/757tSp4n+q3cjyWNrNhYARpeZqDyuNIVATAjJE1qyeM7PzlPF3TRlZZEOgjRDgj5kPHCi+XN9GVbeqFEDAiFIBkCxI70WAWTNLDJUczKx7ypE39i6rPt7kD5Y+6rlE0VP1snwNAUPAEOgpBIwo9RTylm9LIMCn4KF2puh1T5KllgDWCmkIGAKGQIsgYESpRRrKitkzCKBJ2vLF3oqOVrPP6BlkLVdDwBAwBFoDASNKrdFOVkpDwBAwBAwBQ8AQ6AEEjCj1AOiWpSFgCBgChoAhYAi0BgJGlFqjnayUhoAhYAgYAoaAIdADCBhR6gHQLUtDwBAwBAwBQ8AQaA0EjCi1RjtZKQ0BQ8AQMAQMAUOgBxAwotQDoFuWhoAhYAgYAoaAIdAaCBhRao12slIaAmUR4E+F8/5ImI0z+XPX+L+3SJQNKfkX9nK7dxP3vqemuKlz039ky/+CjZk0z7255KOyZbUAhoAhYAi0CgJGlFqlpaychkAJBPjDUP5U9Jc3j3THT5zsEnLi9CV+40z+0DTeqXv6W+/7Z5cNeKhLvNDj3Q8+9eG+/4t7Qu/smn+zZ0NO/oDXnCFgCBgC7YKAEaV2aUmrR69G4Itd+913rhrsicqPrr6vy5+SQo70r+9PvTi3E1aEh+DMf29NJ//4Bq3UhZfd6sNu3LorfuyMKHWBxDwMAUOgDRAwotQGjWhVMARA4OixE+5nA0d4IgOhYUfx0H26cbt/BinauuPsM/4XjvuLr7yjy7/BE/fAoaMObZSOK64f5sNfc9vTmd/Mt1f4bIwohWjbtSFgCLQLAkaU2qUlm7QeS1eud2Mnz8+1nWnSYrdssdAc/eOtT3kywzIc7qNPPncPPDPVH9+6eIDjuHfka/5e2iS0TQqze9+hrP4huYJQpQ7Sw/UEUeI/9bCLWrG6IyuzXRgChoAhUE8EjCjVE80mToulEmxQOPr/YZQv6auzl2Z+z706vyGlv2v42T+VPXL0RFXpvzHvrP0MA/TvH57YJY1Z8z/I6jBywhz/fPDjkzK/ZR9u6BKnFTwgLWqvhX9a686c+cr95LpHvB/nw0eP51bj1OkvPek5ePiYD/PyjHeSBCdFevCDHMnxv3XjX1+YPLBFInzf/g/64D1BlMCBMtw94lUVueIz2jRhsXvvwU7xe+q96VQIuzEEDIEeRcCIUo/C332ZM+BpMEB7gIMoye+x52Y2pDC1EqUTJ0+7Nf9/e2/+d1Vx5/v6D/hL5xy7+9x0Tp/cbm8fu++93b7i6Ux2JyYmJ50YT+dG49Gkk4ga4oxERaMoDiAOiIqggKCACqKogAJBBAQHwiAqIog8IJMMgowCDqn7ehd+lvXUs9baa+9n72dP33q91l5r1VyfqvWtT31r2Gs2enLX79ZHuuRx1oLXkjKos+w7cFxi16xE6fq7Jidl0G604398ZWIXL8juAkxgwR/7olUKrwuue8DHdc+4mZ3s8XPo8EdB6PRHCAqLx2k/hME0K1F6d/MO9+LS1b4s2yOiVK/vJh11szUEDIF6IGBEqR6o1ylNpkjo2M7vP9rnYOmKDv+OHTufamHoeFat3ew1It2J/5ohE10aUVrd8fm6m0emLvRJDBs/MylX3PF1Jw89GfahKfOTMmhL/xmXDPV2rD/qrkE7R72jrSrXMN2lvIRavnoQJY5DoH11t5537t7n8UiLpx7fTbl1Yv4NAUOgdggYUaodtg0X8w/OHug7gztGT/N549wbOksuaQUaJdN0xqHJIkpoS1SGl5at9kFYXCy7MI5mep6/aGVSBmEhcsOC7diceeldjvoNrzytU+9rRvn4WcxdjiFOFnKDL1NuTPPJ1IMoKe1y7xCs8MypPKLUTN9NuTiYf0PAECiNgBGl0hi1jI+LbxjrO7gpsxYlZdJomcMKQ8O6FrQGXCzIlqHTZrGw3DQtJHfuy1eud3Tc8sMzhKaUobPiQENtc//aadc4CBLTH1lEiTg1BbRl2y6fxMp3NvlyaoqxVLqVuA8bNsydeuqp7oEHHqgkeMkw6zft8GVguk1mzOS53u6Gux+XVXLHH3Wp+oTIQGrQkIR1oTqRPxZzy073rHOQaCP4EQnlSILQlEOUIGjKV7w+jvVZygvawTRz7ZBJiR/8SpuY5je0Y6oWoieszrrsHsc6tzyiVM53E6Zlz4aAIdAaCBhRao16LFQK1iHRyUFkZBgtH3vypXpN7vgZPWmOJyGQJhnO0pnw1ALvRuf88NML5JTc6UAJy3Xn2Gd8mnREeYZt6BAkyNFTsxd7Ddczc5c5DjfEDi1K2tQbcbK4mXKx4BnDNnnetWg9L91K3JYsWeKOOuqo5Fq1alUl0eSGgeRQBsiEDOccYZeGufxw1xZ+4uCIAMKUc0EiYsOiZuohjId3yJFMOURJbYS6g4iEhpO9aTsQoKw6RGuoNgbZg0iXMlrUzmJ/Ds9k/drto6b5MmktXdrUWznfTak8mLshYAg0HwJGlJqvzirOMWfn3DnmmU5TDkzxZP0lBQlBpEKiFCbO1EupTlvTe6WIEju86DTjU6XDqZ4sokSnF+cRLUW500ph2fKeOzo6EpIEYdqy5fNdYnnhynXj7KJwMTrY0LGDaZ4JiRL+0OaFFwQDwsNatdA+fA7j16neIUmCXOudBeFMY5VDlBT/4Puf7kKU5DbkgemZREl+uDMlWYooMS1LftMO1WRQoLKkEaVKvpswf/ZsCBgCzY2AEaXmrr+a574niBKdEx2VDkGMC8XUG1qOLKIU+++J98WLF7vbbrvNLVt25LDFnkizaBoxUQrDoW3T6dqQMHa/ocHLMlqPRP1Askc/9ryvK8iWNDS4sdOwkYkSbeeKwROyiploltKIUmYgczAEDIG2QMCIUltUc+WF7AmiREfNtFueYRqmkYhSXl7r7ZZFlJiaZCoLYnPKeYOd1nLxftuoqaknc6PpYw2Y1qmhqcM/RAkDOWIKFtLVyEQJcsj6pCzDgZWUy4hSFkJmbwi0LwJGlNq37guVvCeIEp0vHXee4ZRpI0p5CH3ulkaUmFbTid0QGxECjojQwm60R/HUJwQJjZ5MTJSwZ3oUk0eU2B1HXPKr+Hpq6o0yclZSluGsLiNKWeiYvSHQ3ggYUWrv+i9Z+p4gSpyDQ0fG4ZJphvUvdO5GlNLQ6WoXEyXWoWm6DZzXvru1UyDetXOQnYLb3t/dyT18SSNKcs8jSlt37PZEBLIWmp4iSqSrk9vD9PWsaUQRSNl3987uyH79+vnrhRde6G50Ft4QMATqgIARpTqA3kxJssCaLfux4VgAOt1qLOZmJx2LgweN6JoO6WrxcaMQpU8//dSdf/757thjj3WXXXZZDE1d3/mrGO1Og5zoT2/RlrAVHrs0AznSsQx52r1KiZL+M461TKEZOvZZv2EgtOO5Y+M2X46sXW+h/yKLuTk+gPaaRgI59kBEsZpEaf/+/Z0W/W/evDnMtj0bAoZAkyBgRKlJKqpe2WTED4nR/39xvg/n3NDxcnF4Zfj/WGh/0FDgn4vpFvyx60h2/GVEPAXz6pvrfEfGX3foTCemi9j5RHg6Mg5JJP0if7FRS7zQDITHAzTKgm6OAhBJAjO0cKxDunf8LPfYsy+XhIS/JWEnnE4CTwtQKVFauGSVr8eYDHMyOHmd+cJyv0aK3ZHkFVKDPccj0F5Cw64/tSXu5Jmzn2RH+9u1Z38YxO/Kg3SBCW0Sco6BSPJfb/q/N3ZQhn8K3CmSMl9mzJiRtJP+/fuXGdq8GwKGQKMgYESpUWqiQfMBaWFBL52WLkgLGiWOB8AOTYVM+Lco8p92D7e9K+wry9ckHb06StLCnrNvFE/eLi3FVcv7jh07kg7w6KOPdrt3p2tpapmHOG4OAmXaTPVx8/ApCV6jJs7x5CdrajOOi0XfOpMqdssjShAV0kczFZ7YDeHV/+/x1yyx0Ynjql/u9z0yOyHktIWQWLOwP/Sb9oyf2BCH8kEYtTHOcUKTpHiq8RcxpN2nTx/fTmgjH3zQ+XDOOG/2bggYAo2LgBGlxq2bhsrZ5q27/K4hRvcajdcqg5ywzQ4ltEeNat5//333/PPPu127jpwGXu98Xjf0Md/RM22mv+aY/vzShAyIBEAOuNAShpfs5W/ck10JDWXMI0qQK+JUHHGc2Mfro4QbhHz2wte9BiwkRXKv5h1SCflGewSJq5X58pe/7InS0KFdSVut0rR4DQFDoPoIGFGqPqYWoyHQ4wiwvR8iEk9TsWMNLc7lg8Y7dg5CpDjtHO0Tmh8uTT2FdxZmp5k8ooR/yA6LyUMSxjPp6UiBtHhbzW7t2rWeJH3xi190Bw8ebLXiWXkMgbZCwIhSW1W3FbaVEcg6sLOaZWZ90ILFb2UeDlrNtJo5runTp3ui9NhjjzVzMSzvhoAh4JwzomTNwBAwBAyBKiPw8ccfuxUrVlQ5VovOEDAE6oGAEaV6oG5pGgKGgCFgCBgChkBTIGBEqSmqyTJpCBgChoAhYAgYAvVAwIhSPVC3NA0BQ8AQMAQMAUOgKRAwotQU1WSZNAQMAUPAEDAEDIF6IGBEqR6oW5qGgCFgCBgChoAh0BQIGFFqimqyTBoChoAhYAgYAoZAPRAwolQP1C1NQ8AQMAQMAUPAEGgKBIwoNUU1WSYNAUPAEDAEDAFDoB4IGFGqB+qWpiFgCBgChoAhYAg0BQJGlJqimiyThkD7IsD/1WWZg4cOu8eefTn1z235A97r75rs/2g3Kzz2HRu2uVvue8o9PXtxqjf+tuWByc+75158I9W9qGXHxm3uqYw0wjj4U+BFy9e4xa+vDa1znz/6+BPX+5pR7tohk1wt/lSY//67cdgT7sWlq3PzkeXI397c/dAM9972D7K8pNqDPVg8MXNR5p9xL1yyyl1w3QNux669qXGYpSHQXQSMKHUXQQtvCBgCNUPg+ZdX+D/7vWfczNQ06CD5M2AIUWz63fqId7tzzDOxU6f3l1992/vjz4LTDCSBNM6+ckSac64dxGDG/OXurMvu8XEQz8RpLyZhDh3+yK3ftMOTgUnPvOTO7z/afenE871f/kx434Fif6g7a8FrPswPzh6YxF3Nh4efXuDjv3Xk0xVFO+DuyT489YmB1ECeZr6w3JOg8U++4EY8/Ad3+6hpjno7tfdtCQ5gxpVFZC8aMMa7x/Uz9vF5rsj16pvrKiqTBWofBIwotU9dW0kNgaZDAG2CiMPVtz/qPvn0005l2Lx1V+Iedni79x7wnScd7K49+zuFiV/+9Kc/uRN+cpX3v27T9tjZVUKUfnn5vQ6io06eO2mMmjgnyc93/uPGTu7yS3nPu/p+BzkpSpTOueo+H9eYyXO75L+Uxd79H7o7Rk/zJAWiknZBXMjf6RffmeoehkHLF5uYKL226t3UsgsD7v/wb33dTy8c4jVZ0+YsdVt37I6j9e9oHIV1qLEL48p7puxmDIE8BIwo5aFjboaAIVB3BJiyEpH59RXDXdwRT5r+ku90TzyjfzI9AyGhc2QqKs1ApNDs6IIA4B+CIrtn5y7zQSshSsQF4bn4hrHuwSfmOYgBhCw0x//4Su+nz00POTQ1aFVI69NPO/tTGEjjkAemd7no6EUErhg8oTzIbiMAACAASURBVIt7Whjs3t28w0f99rotSXjF05172lRpTJRI+Jm5y9yMea/6aU2m9Ja8sdb9sNctPi+aPpz3ypuOsJu27hQMqXdp1MB82/tHCNULf1zpZi98PfMCc8ppRCkVUrMMEDCiFIBhj4ZAUQSYBlBHWjSM+ascAaZqRJZYL4QBfzo7dXhMnekdbQSdYO9rR3m7eOquCDmg08VUSpTOvPQuHz7rB6IEuStqbrjn8aoSGtb2YD48eNhPgzEVlnWJODFVluVH9iI5xPvK8jX+goCKlGCHFguDxgh7vWuK0js655hKxH3N+vdkldxvGzXVfe20a9yGLe97O03Dsp6piGHNmfKU59++9Tx02sPNiFJ71LNjSuEn59/uLzoPDAJFdox6zRRHgGkTrkrN7++Y6IU0gpqRdWzo8FU3jIzRMtCpYMe96JRMHG+93+kIVa4dO/f4hdZ6/93A8bnZY73PXQ8+m2hm0NaAX5FLpEcJoPVAg5N2sdaFOJluwjQKUXrrnc1+vRNrnnTd98jspPxowmRf5M5C6dhAbsA5vEQqwTC0D59ZTB4byE1W3Wih+uMzXvF+Rj92hPyGRAk/hEfjlmZYz4U7i/Yxe/Z9mJCmNP+xXVGiZN96jFz7vRtRapM6p2OQ0FIHD1GSHR2QmeIIdFd40knRAaNVYP1FbFicrLrRAlj8yk6j9jhco79/66wBSRn2Hzjkp1RUJghgOWb7zj3ujdUbOl3SOs1ftLKT/cp3NhWKGgIqbRRxYyolSpQLjUd8sWgbQ33iVqlhKk8amZuHT+kSDRqjpSs6utjnWWgaU3VS9C6swrh37t6XrGeSZohBGuuZHpm60KEBVHuAhPGu9HjWuiPqg3dIVGhiogQewyfMcmgPs65wDVNPEaV2/dbDumr2ZyNKzV6DZeQfYYQgQsBgEKISTGmddRlRt51XNHRpC3/LBYKplzTsH5oyP6kbtq9jzrhkqLeDDDSr0RQMnSCGxdlqg+x26q6BeBAfu8nKNYc/+jjBGI2fTHeIksoW3lk/hYEo8U1eeuODuVe8gF35mvDUkZ1oxIMmKDakSfzlGBEltGmQ9VKXyHsaUQrTjdcoMUiDAOkK8Qmf5c4dzWNoYqKEVisMm/YckvGiRMm+9RD19nw2otRG9a5R3R2f7fJgpCNhUkrQARMjNl3lwHbo8MflePd+0ZiUozWhk4tN2nRA7Ken3+N8ZhElNCKqG4XRdN0v+g7r6WxXLT3OK6JcmtYiYpGb0ZOOEAgltvG9nX6NCu1W15W3Pizn1LsGA6mOOZa0NZE48ha2nUqJUrxGCQ0PZQ+Jkuo47572HbC4WWGYmk0zuFdKlDQVlhZvaAfJI51S8iMmSmEcLHSHOJ9y3mC/q474RNggamnlJ3wWUULbS52Fl3bZVUKUlFfJPu5FjL5b+W23b13lboW7EaVWqMWCZdCajimzPl/sqI5FiynDqLZs2+XolNFknNnnLvfOui3u8OHDbupzix2dAMKt78Bxjg4tNuyooeMJ1ecstmRdQ5ZhHQ5rpRB06gToIBGaoWEtArufyBeaF0aa+EcQMcXCDhhNwVw+aHxF2oUwPT2TD9LUFWod5Cft/uaajY7dSIyKySc7e+4dP8trU7KEJ2fr4JcRuwxbv7G74e7HZVXV++7du92VV17pTj/9dDd//vyqxq3ImHaiDOF6JK0JYodSaNCk0T51EY7OFMPZR6qH8I4frtBOz3eOTT9PibaPH4WN22gtiRJtgjU2ukY++pzPB9o17LQzLcTlwIeHkt1hfFNZhvJUSpRod8It767vuxyixJQpWjIIEFNw5BMcWLAfrlEa9+QRrSoygPqOTRZRijVPhJPmsihRir91dk9+8sknXv59/HHXQZny1izfuvJr92IIGFEqhlNL+GIdEkJp+cr1SXkQQgi7NMMaEnYYMdL/y6+f5+a+9Lrrc+MY98Vv/sYfCseCUTr9UPgQjw4JxJ7tv3Q0059f6v0iuNOEHiN4bdEeNn6mP5VY26HJM8RI26bxC6GS2h/ByKgaUkf8+GcxNB0vAlhrQtLKWI4d5/SABRekE5JTylB28kTeyA8jW87HAXPOvqEMaVNvdCKUI9RKsFUaO8LXwtx5553uqKOO8tcxxxzjO4Zqp6MFuhwuKDNoxBEtkxblyj6+U3YRJRYu817OFR9ISPxMq0ijpbh4p95kakmUSCs07LAiH/EuPfmBJIGB8rq6Y4v/LhjUxJf8xPa8Z01NSpND+yRvpS6lUZQoIW8Iw/ep7xc7bf8PiRJl5tvVN025X3vrc9lVS6IUf+vf+cUAd+jQIXfw4EH30Ufp07rN9K2rPdm9GAJGlIrh1BK+EEacUhyueWCKJ+vE27DQf//9Pu7vTr7Ynfiz37vXA2GFejncPcNOJgQbi0tjFTXpSrPCOTahYasvwllbfUM3dt0QJ6Pt0ECQ0D7ReWDYFYQQZnpHZujYZz0B03u17mxNL0WUOOiQfA++v+tpxix0ldYrjSiRT8gAxEKG84NYCBviLbdq3CdMmJAQpeOOO65L/VUjDQggU7+h1oZzkvh7i1KGuhVRIh7W5YQXZBo/7GQL7fUcTwGnkS3aIHFwQVZos41ClBi4hCSJPIIdbUl5Lnrnu08zIkrVmnqjnphyFEEif9KsKq+QZtLjom3w/eqde3gsAoMzmSyipHjT7uGgrugaJb717//qRvfhhx96ohRqlCTjmu1bF4Z2L4aAEaViOLWtLwQBKuf/94d93RkX3eG27vjAffrZ6cjYM7piOo5nDFordrIgINMMnT0jyfAEYTRECDW0TlkGFT2kQ4IJfxClULvClBzxhJ0wgh+tV7VNEaIEAWJEnoUFh+yR3yyiVO08l4qPDmDq1KnunnvucZs3by7lvcfdwUpEKU4czQrutBGmLdFOMg2SZbQeiTAMHuiQeUZbqOlB3plaLpcosXOOsFyhRkYEQWuUeI/JdpZGCZKkwxgpowgdRAkiiLaM08DDS3kI7fRMmdKMiBLfFlqfUhf5J500jRI7zMir8sEdEsT3zllKOk08dM96pt45kDL8/rOIEmmqnLqj0SXucokS6T07F234zZ4o8Y2kyb9pc5Y01beeVvdml42AEaVsbNreBSGBUIAI/eOPfudeXvpWIiRwgyRJHa1RFgI7TYMSgsn6i/BsFNYVIcQQ+FmGdQ34CddDNTpRQnvGItYso3UTjUKUsvLZKPbUfxpRgiBLO4dmUute8M96tTRD24GoML2LYSoX/xAlDEQCQo9Gr1yipHOHiI804osdX3w/uIeL2kk3iyjpTCIIEqRQ67ogSlmG+CEN5RgRJcKWc6URJabdiYPpNK071FEX5AmCijuHWKLt5tJaMb1zx09avWcRJeo2NvrWyiFKkn8z5i5xPzrnZq9NEkmK5d/Vtz9s33oMegu9G1FqocqsdlEQBmiKmJf/J4jSslWdRnSQI0gU7iJKjORZY5RnIA/807mM1q0gzLIM02sIzPCE3kYnSoyYmSrLM3RkRpTyEPrcLa3DZLEzWhvc6JClvWP6DTsuztaJDQQp/KuNmCjhX3HlESW0I8Qlv4TTjsWsxeP40blmtJHQZBEl/ED6tLi71kSJaW7KVurSadhpRImBj/6fLW3Xm4hS+B99nLNEnYWG93oRJeTfzHlL3Y/OGehlHTJRJpR/v71mpH3rAqYF70aUWrBSq1UkhARE6MCBA+4ffnCZe+XV1Z4oiUDhjrDg0kiL9QSoufMMQo+1QzLsOkIYpglb+dHWagS3TKMTJTrfcDG28q07nR7lNqIkRPLvYYcJMQFfTe2wBibWSKKpIAwXGsx4u3aYWhpRknseUYIIEH9IeKTRytJmES8L1wkXnx2VR5SUH+61JkoQFvArdfENUo68b5f85hEltGTSuhEXl965814OUSI+BmvhpY0s5WiUJP+efX6x+8Gvb/KDRmRfmvx78Im5dfnWV61a5fr16+ev6667rtNANmwv9tw9BIwodQ+/lgwtYcDUGtoiFjH+X9+9JJmmQIAw5Ya7CJKAYHSIYAtV7HLjzroF3Fet7bwGBm0AnV04Mlc4FuGyFkJ/vSL7RidK6gzZrZZmWD8BFo1ClFiXdMoppzgWco8bNy4ty3WzY4oJrLTmiyky3rnYOBAv1FZG0VaKTDEtl2UqJUqaZmMtk4zOFgqnieWmO2t0yHucp0YhSsK26L07RInBBLtIuUSM9M6dPJRDlPLyXIQoxfIPovTd/7hBVecJUyz/6vWtDxgwINmA0bdv3ySP9lBdBIwoVRfPlokNMrTzgz3unXWbXce7W93fnHSRXzj99rrNbtU7G93Kt9e7DZu3J4u4KTgCBqNDBVmwrW3IjPbZRYQQ4wyh2DAyp0NDIIbTa4zmWd/AKDGcKmFbN39rQCfJTjuMFnOjfZJ2gTUXdK463TpOt+g78dEp6qKjRqjrnXu4iFzxqgNmh5W0Yfy7ORoBdQpMc9CpCj+F7en7TTfdlAjdo48+OplO7el8xOlx9IPIDu2H6V3qnLOYlhX4iw7aEyRbbSKOn3fVk9YohX7yNErSdHLEAUZTxOQ3rz7RqFIWzgoKTaMQpWuGTPQDI6YV8y6tKeoOUarW1Bt4k4+8K1zTlbXrjXayau0m99aaDW7lmnfd2Mlz3D/9+IrPvvUj8u/dTVu9th05KYNWiTrtyW/9hBNOSL7ZHTt2KCt2rzICRpSqDGgrRIeWCG1RnxsecP/nty9wf/G189x/OqGX+8JXern/8vXfuC9/+wL33793ifvXM/snGiUEhqbgEFgIC3Vu4T38r6UYK853keBF4Cgc275FhgjDwXS460IbhWFnkOyY/sCEi1MhKJUa1PiKO+tOftM0GxBGiB7hVCa0ZxAr/dcVbmlHI1Sa30rCzZo1KxG6J510UiVRVD0M05PCjIM2dQQAC61pS2CYpoVMy0ievzyiBAmmfqgrkV3ip0NFk4QbB59i9P+JLOTPM6r3mMCXTZQ2bHMcIJt2kS+uNDfstH4IXBjQcOlvUVjXJbu8u9YosSNN/nTeWVh+8CAvoaZZa5Q4FJadgFzCRe/cCVdEoxSmV+SZM+KIO1wGQLh7J8x0Xzrxt+7Y716UKf++curlbv+Bg13k39jJc93ffa+Pj1fttlbf+vbt25PvddCgQUWKbH4qRMCIUoXAtXIwCA9TblysUdLIGAKlXW64adoNd+yZohNZAh/WhDAa5+wTdraFnUwefhAapqvQJIQEKS9Mo7uBERgwiuXcm0Y1a9ascQsXLvREud55pL3oj1K1kxIc0SLSwYUXnRIXhDS8ZC+/kJ40k0eU6PhFdIknjhM7HZYpos/BollGp66n/WdfJURJZSv3rilh1kmVGzbPv4gH3z94aGs+YcIpdxGlvLjkVi2iBPFGm6s1XsSPxiw03ZV/DBp74lufOHGiJ0ocDrt///6wCPZcZQSMKFUZ0GaOjk5I2iRIDyRJqmXsJUAgRSJE2ONPBAr/xGPGEOguAmgomGaLNTnEiyaGqVzWsKBR5IwhSBXTtPjnYl1beOGWpVXKI0qkx6nq5CUkYTwTZzhdxxlM2OUZpgsJO3D4k128VUKU0IygASr30g46tL+sE6rWhVZNRtPLEJLwSBDcRZSmPrck+QsXCGd8EbZaRCnUOkN40XRpt22zyb+zzz7bE6WRI0cKbrvXCAEjSjUCthmjRVDobCRph7DjggBBiESgIEiyl/aJsNiFhnf8yn/oZs+GQCkE0Cp1Z8q0VPxy57TzBYvfSv5KQ/aV3MO1dFnhmbbjNOfYoG1kGittvVvoF40V01hZxC/0W89ntEoQ3rR8si6PvzPigM48g8YHzXRsWHtG+Ly1Z3EY3llHRppxnpBVzST/jj/+eL/xgjybqS0CRpRqi29TxY6gkGaIu8gN9pAkjgmAFKFNwuDOR4p9qH0KCy0/0kCFbvZsCBgChkCjINBs8q+jo8PxR9Zmao+AEaXaY9w0KYgQQX5EbLBDmwRxQpuEmwgUfiBOofYpLqzCikgRX70MKnZGn+Vc8aizXnm3dA0BQ6C2CLS6/Ksteq0duxGl1q7fskqHoID8hOuMpBGCEKVpmWRPmNAQF2GJL9RExUQpfg/jqPYza0e0OLTonbOazBgChkDrI9Dq8q/1a7B2JTSiVDtsmy5mBEVMXCBAkCGuUJske8gTZCgOJ6FDOIhSGFbpEEdMsGoJGmtHWBdRzlXu+oda5t/iNgQMgdohILkUpiA51wryLyyXPZeHgBGl8vBqO98ID03FITR4l6YIkhRqmUJw8IMbAkZkSuGIj4vpOC6eFXcYhz0bAoaAIVBPBEz+1RP9xknbiFLj1EXT5ATCA7mBBEF0wpFYSKREkiBBXOGaJtY16ULjJDIVxtU0gFhGDQFDoG0QMPnXNlWdFNSIUgKFPRRFADID8YEIcUGaRHCkNcIeIgSRkmCBDGHHnTAQJy78YMeFX5Et7mYMAUPAEGgkBEz+NVJt9ExejCj1DM4tlYqITEhwNH0mTROECLKk9UvYy47nkARBjkSicCOMTcW1VJOxwhgCLYOAyb+WqcrCBTGiVBgq8xgioFEVZAkCFF5MpfEO4YEEQXpCIiStURhfSLAIK+1S6MeeDQFDwBBoBARM/jVCLfRcHowo9RzWLZeShAWEiEtaI4gO2iRphXDjXXZpQCisjhLgHULFxbPiSgtrdoaAIWAI9DQCJv96GvH6pWdEqX7Yt1zKkBo0QWiZIDcIEi6eIUl5WiL8SCtFeJEkSBb2uGNnxhAwBAyBRkTA5F8j1kp18mREqTo4WizOJYuwRXIgSTyHGqU0soM/TeGFWifCQa6w4xl/ZgwBQ8AQaEQEJO9M/jVi7XQvT0aUuoefhc5BAMHBpTVKIjwIEgkV3NAWQYhCzRHukCfChOQpTE7xczdjCBgChkAjISD5ZPKvkWqlsrwYUaoMNwtVAAEEhTRIocZI02gIENlrbVJIoqRNkv84SY3clEbsbu+GgCFgCNQLAZN/9UK++ukaUao+phbjZwhAcBa9uto9+MQ8d/iz07hFfrjrWbvkRIggPtImcYdQhUYjNfzjrnChn1o/Pz17sXt27rJaJ2PxGwJVRWDeK2+6My+9y8cZPpdKhL/9WbD4Lbdl265SXhP3g4cOuyVvrHWvvrnOHTr8UWLfLg/IJcmmUHOOhrzZ5V+71KHKaURJSLT4fd2m7Y4/eOXqfe0oX9onZi5K7CAzobny1oeTP5CdteC10KnQM2QGYTD4vinu//jGb9zefR8m65UgN7hp8TZEiXeECeG0gBs7BA12oeH96dl/dH9z0oXu2O9e5AYOfyLRXMmv7mG48PmHvW5Jyscf5N447InQueQzf7DLVW3TXdzJz8eftNaidzr0+E+M9+7/sCT0Z112T9K+d+zc41a+syl5/93A8SXDN6KHcr/juAwPTZnvTjlvsLfmmz+1922xl07ve/Z96IlViP+vrxjudu890Mlf/DJj3qud6uxLJ57vZsxfHntLfd+5e5+bvfB198bqDQnB+sTvgO0sB8LAuL/21npHW3lv+weJU/wt8L7/wKFCVyhD+M/HIuEOHf7Yp01Y5NfQMVPdGZfc6U67aIh7YdGb7vDhj9wv+t7tfnHZXe5Xl9/j3t/5gf8vzHLlH7KSMOFyBhJWnnVPgLCHbiFgRKlb8DVPYP4QVsJOHTxESXZ3Pfhsp8K8/8E+t+Ltje74H1/pKiFKRAYhuvX+Ke6//stvPVHi49UHzB13kSURIux5DtcrdcqYc55Q7dm73722ssNdMuABd8M9j3eKlzhEuuKwet+8dZcvH2U8+8oR7oa7H5dToXutiFJ3cX973RZ37MmXFipDs3g6/NHHSV2JNBUhSt86a0DSvunkNm3dmbz/9MIhzVL8Tvks9zvuFNg5N3Tssw6ig7lz7DO+7cd+wnf8/sO/9fWk5dNP/+ReW/WulwnnXX1/6K3TM98UcmXg8CfdvgMHHWTr9lHTvB1kNctApPiuCEsblmwafP/Trt+tj7ghD0zvEvTAh4fcxTeMdRCxMNyJZ/R3z7+8wtuJvBA4bBOKP+sOucbMX7QyyUuWX9lfffujSR6Rb7eMOCL//vyr57k5L73h5dRXTu3n/tMJvdxf/+v5bt++/YmsQ24VlX+SnZAlhSNhPZeSf0km7aEQAkaUCsHUGp4kTM7vP9oXaOmKjkQATJuzNLWQJ/zkqoqIEh8smqHNW3e4N1evdwcPHvLvfMBckCEt1OY5XJuEEEDLFO90kxAINU7975zkiRLhiYewCA/uvHORXt46pisGTyibKDGy56qVqRT35SvX+zqtVb7qHe/WHbt9+YoQJTpzOjARR7QO6tDoeJvVVPIdq6wD7p7s+g4c51+vv2uyy9OsoaEBL8hRaJiCw37V2s2hdfKMJu+Xl9+bvOsBLe45V92n1053kRHIm6b3qC8GaXwLpMeAKDQQ6NMvvtOTn0XL1zgRom3v73a/v2NiUteQNRk0YR0btnk3pgVJK75E9ESUyAdaKkgQbSr2r3cIm4iS5N+Ep+a7v/3OhX6w+M66LV4W/fyyu91ffbO3O/k/BngZ2B35hyzEdEf+CRu7ZyNgRCkbm5Zz+cHZA72AuGP0NF82tBfqOFBzp5m4w5YwSvMb2+njRTukeXmRGdlBaERiJFwgOrv37O2iFcIdv4QhPPdr7pjoBSjxkgYjtP0HDiQkTKQJsoQhjthUQpTiOIq8o/aPpwKywlWKe72IEu0iDdus8mFfDh6KpxyidMt9T/n2HU4vfe20a7zd6ElzFGXT3Sv5jlVIOnNpT3m+efgUOXW5Q6Q0TRc7orFB0xMbabwWLlkVO/mpN+QN2r3QrFn/nq+T8U++EFonzzt27fVkNyZKED403kyLpRk0UKQXEiX8sXYKe9ZdpRnJRREl+aE99bnpIb12uUPORJRwRFbNf2WFXx7AMgFkE3JqwF2PefL022vv9zIsTf4xUERmhd9UmvzTIFDyT3JVg9Ai8q9LQcyiCwJGlLpA0roWCEYExJRZi5JCanSaNUKnw575wnJHx4JwJDwj9Auue6CLAFKkdNYsGP3fl97lzupzl/vl7+5xe/bu95qe8EPm4w4JTMfGbe6cfiPc//2Dy9xx37/E/eS3t7r7Hv6D27f/oDvjkqHurMvucv0GT/AkiHgYTf3+9kf9GqX5r7zu/vfFQ9x//Zfz3V9+/Ty/JmB1xyYvmBAakCqlpXzqXpQoTZr+ks8HeeFCMBYxL/xxpQvXRBGWkfKyFR1JfHHHXS7uxEe86kSVx/A+/fl0rWGRMqT5oc1cM2RiMuKnbZA+2slbRz7t1wTF4Zi+YW2MplgUBmyLmHKI0qRnXvLtNdSaMM1KmqyBqYWZNWuWO+2001z//v3d/v37a5GEn2qiDOV8x2hPXly62rdD5ADP1BVkg2e0R7H5Rd9hbtj4mbG1f2ctXdr0GwMu8kY9xwZND26rO7Z0ckKL9L1f3ZQaRh7RhN07fpZevfaIuJ578Y3ELn6A6CCr0DyFphRRgngRjmm90JQiSkxrxtOD6zZud//l679x//KzaxP5N27KXE+eBg2fksgkSBAXMgpyg3xDPkKi5MZzSIiQf6F/yUTs8Iu7/OfJv7CM9pyOgBGldFxa0pZ1SAgXiIwMwlJTE7IL73TYrFHAz4iH/+AWv77WkyZG5oRNM6ip6fi5EIL/+X+c43bs2uM/Wj5cPlo+YgkB4iDeP/tKL/ezi4e65xZCIt5xDz893/399/u4X10+zH3xm79xt4962k197o+eKOnDv+aOR93XT7vaj9AG3vu4e3HpKjdl1h8da1D++l8vcJvee98LHYQPaSJ0YlOUKLF7R+Wis4E4ljL4B3NI1cuvvu3LKU0HC+txww9TB6EpF3c6H+K5buhjSZzKq+5vvZM+VRKmW/R5/aYdvl1AeJ6avdhPz7DmDQJNmbiwD81HH3/ip0pwowOmzim3Rv6sh0nrYMM4yiFKxE9atFuZQSOOaJnWvrtVVlW708aOPvpod9RRR/lr9OgjU9xVS+CziMr9jlkjpG8YPBgc8T2Hz3zP8bdB+w7JWFgO2lTa988ibrQ8WYa0GTiEBo3fI1MXhlYln19atjpXbuVFkEaUyAPTf3kmJkrkIQ2DMA7aPPLvP/rek8i/uS+97v7qxN7ukakLumBOHSAjIT3IOJ4hPpKb0hRJ/iHT8KvBIDJVRmQJ9zz5J/92z0bAiFI2Ni3nwmLWO8c845hzl0E4sNU9y9BhI1Tj9TisW0DQlup8pcZmJ0uWQXAhXFFrIyjCUdKGzdvcP/7od+7vTr7Yvbtpa7JDRELg2iGPeu3TrBde9eEk7NmOjFBGe4GQkCCRe5iXokQpDMPRAKWIEuQFjB579uUwqH+ms8ANfNNMpbj3xNQbZIaOBY1DPFqnLGjKKFtMlG4bNdW3pQ1b3u9SZBahU18jH32ui1toUQ5RYmqPaeZwFxRay7sfmhFGWbVn2u2Xv/zlhCg9+eSTVYs7jKiS71jhaVfSLPIMsckyfJMsiE4zyAwWRscGsox2KMuQZqzNo62wXrIcA/lFW1qJEVF6YPLzbupzS/xF2+M5z0CUaPcKg5aL8pQyE6e96AcF8kf6LG5HNqaZUP6JBHFnOk47hCX/IEy4iTjF8g1/peRfWh7MrjMCRpQ642FvEQIIgiwixSgUwZhnihAlFociqLSWgI9dgoCR1ORnXvJHAUCUEArY4Yf7dXdOdNffNTGxCwUFC3Yvv2V8IigQGKG78n1lBYu5ixAlpp/QGmWZiwaMyRS0leLeE0RJadBhZxnKFnZ+jKzpENVJp4VDq0A7SKsj+S+HKClMT943bNjghg4d6qZPn+7bcE+mXSQt8NX6IZ6ZdssylRIltIxZJosolRpwxfHdM25myR17cRi9iyghvyB72glXhCiBmcKgpStClJRu0TvtP5R/aI2QXZCkWP5hH9rF305IlLLklAZ+DAAAIABJREFUX9F8tbM/I0rtXPsFyo4gyDoeAIFYDaI0auKc1EWjEhirOza7L534W7dxy45OIyeI0vVDJ/ktuDzHhrORrsggSggQRm5cV932sLtp2BP+OY4j670IUULjghYly3CmTZagrRR3kZisNKthzwg5rzNMS4Nt4RClrIW3hNm+c4/3k7XIFj+NTpTSyl5vO3Zxoanjog5YV6bna4dM8s9vrtnYJZsQCdZ5pZlxT873651it2fmLvPTfLG93iEaDIxCQ56YxirH3PfI7JJnQGXFJ6IUtjO0w0WIUriYm7WbWd9vVtrl2Ev+IauQbxCdUHMkOxGltLiziFIo/yBikoVpcZidc0aUrBXkIlBph61Ii2iUHn56QaoaX3Esf2u9O+afz/HbcvnAESBcCAo0SoOGP+HXH8m/7iJKmtfHv4SPVNaM0q4b+qgbPGKKF0TEX8QUIUoc7Il6PstAELMEbaW49wRRopPK05SllVfrhcJp39gfi2fpNNkFlWWMKGUhk23P4npIO+v2wJct9VofxzNudPqxYWqLNV1pBnvWo8VGR46kEWLsSJ/pz9BAUljzVI7hzCVIV6k1bWlxphElpgPjXW5x2HiNErItDbc4XHffJbMgM7H8k0YJspNmCFNK/klTRVxF5V9aWq1sZ0SplWu3CmWrtMNW0kWIks5ryeogObjuCyf08mtNEBoyCIH+Q44QJZEgueFv4PAp7urbJiRz+AgTLpEkrVu65o5H3C3DjxAljdgUT3gnTtIkrRnzlrpvn3V96NzlGUIBfml/34CAZyFoMxIl1q3QSRU96gBg2CFHJ5l1DAV+mBLCD9N0WcaIUhYype114CaLu9GmgLWmu9NCo3nKOh6A6SfW2cRG33valB6aadKM17XxfaO9SvtOwvjDvHJkAG3w8RmvhF66PEPOYnKeRpS6BEyxiIlSipeqWq1atcr169fPX9dff31CkpQIsgh5BdFJk39yR+OEvyz5R1jcQ42V0gjvofwjrlAWh/5a8dmIUivWahXL1BNEiewyqmU6hy3EoWHkiHDlopMMDR8q5yihUZIgYESka/B9T7prbn84mcOX4IAgSV2NXb/bHnY333skDuwRGNgTfygMiBehQvgZc5e4k37edTFrmD86JBbCX3rjg8lheLhDMDi/hjJVmyjpsDw6rFoZzsqhk2KdSJZhk4DO65EfDiKEHKYRLM5hQrOgv9dRmPje6ETp/vvvd8cdd5z793//d7d9e+0OJI1xKfKutkGb1jb+sH3HcUgLGB8dwE5F2i4L8NMMmivqOjSkg31a/UKA+E7YGZqWH4gzRzzEmyeYPqQdcoBkmmFTAfHGC9abhSgNGDAg2RjQt2/fLkUEKwhLSIQk+7gjE3ELZR12sfwjHsnGovKPOAjTLsaIUrvUdJnlZHSHIGRBJ7tDwoW7jAjR/jAKZFQZ7mJi9MbWa8JySaiyBkF2727e0aWzZH0KnSiCj0PbOFYAYYtAHvv4vC5ECY0MAvKC/qPdZTeNdavf2egFAh8w19trN3lt0nlXjXCsceJPeREquG3e+r57650N3h633/z+fnfJDWPdqrWb3Mo177qVb693m987sh6KMBhGpm+v2+xWvbPRXw9OnuP+6ceXJ2WibOHuKsHN+TUIawgR5IhD+hiNY8e2+JgoVYq70tP0Bh2LphKoEzpJpgHZtVMNw9o06gZtgM7gIh3ahY4IwC00kBzqFy1FqD0kb5BkMIGEhQZShV+1HTQVpEsnKDvcY61BGEdPPTOy19EA3O++++6eSrpQOnyD4I9BewfepQzkBoIC1hh2uxKOxfpZRt88U8u0Rw6YpO1Rb1mkhqM3cGcqkPr0JOCTT3165IF8E29oqHOIF+HYCKCDLNE2MZ2PPe4hMUfOaMcu021qQ2nfrtJSG+SbYjpSYbjH2jGFqcb9hBNOSNrTjh07UqMUIZLc485Aj7tIDzIMUiP5hxuEibAipiJLCic/kn8kjh9pn3A3opRaJWbZTgiwWBNBo4sdHjKou2XPHSGmD05rFEL3tGdGq7FBICHwOKOIAyshS3SiaGaII9Qo8fcJ2H3hK2e7P//quf4vAdas2+yFxDvrt/hdcv/tWxf480pY37Ti7Q3+I0d48IeU/PfSF77Sq1M5OO/ky9++wB9FcEH/kYlmiXzeO2Gm+4uvnee++M3ePi3u+A/LBg5pJ5fv2rPfb0nnsEMO6Rszea4nVQjqmChVinuIJVMcdG7kjXpTHiEjrK2qliEdOk3ip+xKB8KbtQGAv3ugs5FfheMMJRG7MH+cPSW/eXfWZjWC+epXv5p0bi+8kH7SdL3yiWZF7Y3dhwx0ShnqBKISYk9diZRkhU+TEXmHQxIPBCY8mFVpkn4WkUFmcASE/IbtccJTC7pkj29AfsM79lmG7zT0Gz7jVguDNlKke9CgQZlJQHYgMyIwkCRdsZYdPyJPIUlS5NgRFj/yJzIkIqW0uEvmK3wr302j1Mq12yJl4w9sEU6MFPMMHy4fsD7mUBjwwUvtjMBIM4THjwQF/iQMiDMUPGnhy7VDK1Oksyo3XvlHC8hiU8gmI/taGI22SQeNBUSoiGGKlT+45TypNIJUJI5G9ENHs3DhQrd2bdeBQL3zy+nnkFgMA5Ks9UdxPvkGOGCU+gp3isX+4ncW56MFYlDEdFdRw3fOzji0XtJWlgrL9Bw7K5mqRyNVySLvUmn0pPvEiRM9UTrmmGMKn/DebPKvJ/HsblpGlLqLoIWvOQJoYIpME5ARyJEukRzsIT2oi7kgPWkG/xpRSbWMHZfCcyf+ahg0THlTGNVIw+IwBIQAhFTTV0xBpWl15dfu9UXg7LPP9kRp5MiRZWVEso97o8u/sgpWZ89GlOpcAZZ8NgJMuXFmD9qk7p6mDDkSCYLsxAahgh+0SZAkESLs0UYRNs0eN/yEQimOO35HQ6a/GnklWncR+7V3Q8AQaD8Ejj/+eL8pIE1WVYJGI8m/SvJf7zBGlOpdA5Z+ggDTQ1qzEq4DyPpjziRggQdNvUGEmEKLiY1IEgtyQ3dGZiJYECVpk7jjT5on2adlBTIUlodnNGRZfw+RFofZGQKGQPsg0NHR4Xbv7rzLtzulr6f8606+GyWsEaVGqQnLh0eAdQZsR+bibw2qtbYGYqRRFeQGksNoDTvu2GkBI3bSEvGMG2RJ9pCiOEwYX0ya2BnDQlWVi50/rO2pp2HHENiWc9U7z/XEy9I2BJoZgXrKv2bGTXk3oiQk7N7yCKQRHGmLwgXcIjoQIwiQtFDYS+DIP3eIlIgWd0iUiFajgpq1+yfWfIXv5Z7G3ahlt3wZAu2IgMm/ymvdiFLl2FnIJkQAYYEaGjLDpbVHTLlBckKtkUgSZCjNHv/4CeMUcSJu7BvVcF4RO5jKuaql3WtUTCxfhkCrIxDKqnaWf+XWsxGlchEz/02PANoeCQyRoZD04A6ZEokS6cGeZ/xCiESSACQOQ9hGJkpNX4lWAEPAEKgIAZN/5cNmRKl8zCxEiyAgzZJID+8YCA4kCEIkwiPhgl1oH0IhIiWCpfhCP/ZsCBgChkAjIGDyr3gtGFEqjpX5bCEEQlIDUUJThB0GASJCBGESScIPfiFCmooLIQkJFuFDokQcXNgpnTCsPRsChoAh0FMIIIOQZ8gyk3+lUTeiVBoj89GCCCAopDUKp9AoKmQGOwSJiI3sIEAiTzEs+JE2SXGKHEGsiE8XfiFWRppiFO3dEDAEao2Ayb/yEDaiVB5e5rsFEEBIQFJEanhOM/jTBcHRlBskJzb4gwwxOsMfz8TLnXfsuVg0zqVRXFpccdz2bggYAoZAtRAw+Vc+kkaUysfMQrQAAggLSAoXz3kGd4iSptzSiBWESGpsaZNCO9ywx05xyY74SCMrH3JLSzcv3+ZmCBgChkAaAsgUk39pyKTbGVFKx8Vs2wABEZBSRcWfCE5aGOwgQWiJRKawE3GShgk7DIQHIYW73HiPiRD+5Rd38sA79rpK5d3cDQFDwBBIQ6CoDMFfu8s/I0ppLcjsDIEIgSyhgn1IetAWifRAgkSE0kgQ5Ap3CBZ33okPw12aJ8Wje0iYomzaqyFgCBgCVUeg3eWfEaWqNymLsJ0QgAChGdIlkgSZEbHBLjYIHmmhwsMupUGCJCk8/nQpHdxFquK47d0QMAQMgZ5AoF3knxGlnmhNlkbLIgAJkkYIcgR5QXiI6EBwsgxuWtwt4qOwWvCNH+w0olO8uKcRsKy0zN4QMAQMgWoj0C7yz4hStVuOxddWCEBgEBaQGREakR00QiFR2rDlfffA5Ofdlm27PPFBOySSpTikicIeUqQ4BSrvxJnlLn89eV+0fI0b+/g8xx/tmjEEmgWBea+86c689C6f3fC5VP75+5+FS1a5Nevfc59+mr8RRHHxbfAn3y8tW+127z0g66a/lyP/VFgN+ppJ/hlRUu21+H3dpu2OPzXl6n3tKF/aJ2YuSuwefGJeYQTo6PVnqV877ZrC4art8bVV7yb5OPvKEdWOPonvylsfTtKZteC1xD7rATID8dE0Gc8IhzkvvuG+8JVe7vmX3/CLIzW1pjVHhJMdYXlPMxCokCjxf22qj+/96iafVlq4LLsf9rolCU88Nw57Istrqv0N9zzuw+8/cCjVvVLLp2cvTvI14O7JFUXz8SfpGFYUWQMEopNWXev+3ItvlMzZWZfdk3zrO3bucSvf2ZS8/27g+JLhG9VDd8r10JT57pTzBvuiIf9O7X1bbjEhRbfc91Qn/JF/b6/bkhsO9+N/fGWncLePmlZoYHHw0GFPyhiMhAQrr11Dyl57a72D/L23/YMkb3EYysM3W+QKwx46/FFumL37PnR79x1wu/fs8zJQ8m/mvFfd/3fB7e60i4a4+x+Z5WXdLSOecGf2GepOv2iIW/z6OxXJv6SAnz0ga6ttjChVG9EGjS8UsPxzPAaiJGF714PPFs45DXHV2s3uvkdmuxN+clXhcNX2yMf75pqNvmM/45Kh1Y4+ie/9D/a5FW9v9MIujyiBC+SGO1c4YoIMQZT+8/84x8158TVPdKRNUjhpkwjHM/ZpBjfColmSEGK0eu/4We5bZw1I0k8Lm2a3eesuXz7KCOG84e7H07xl2tWKKPEnvOTpvKvvd9ffVRlR+tKJ57u1727NzHszOtDxggvXP/xbXzd74esli0G70LdOx7hp6+fk+qcXDikZvlE9dKdcQ8c+6359xXBftDvHPuPbfl45Rz/2vMdw2pyl7qOPP3F8N7/oO8zXQdYfRmN/7MmXutMvvtOTlsMffeymP7/UxwNRyzJoq5Bp1BltmItn8jvuyfmppO7Ah4fcxTeMTfySLmFOPKO/e/7lFf750OGPkyT5ptQmSt3JM2bXnv2ZYf7sK2e7Y/75HHfMP5/r5dz3fnmDl1MM/pBZf1jwmrf/0om93W0jn/RuV982wdsR7o+vrfFEqVz5lxToswfJ39i+O+9GlLqDXpOF1cd2fv/RPudLV3QkjZ6Pv1wzY96rdSVKyu+YyXO9UNF7re6QwlJECfKCUIAwcecdQcHH/8Hufe7N1evdzl17/Nok7NEOYfArYkWYtI9dhEoaJcJAlLh4nj5nsfvhOQN9msSBP9zKMVcMnlA2Udq+c48nzkWnIcrJD3773fpIxUSJDgDNY6sa2mQRogTZBAs6TwxaB3WO4NuspjvlQkvZd+A4X3RIQ55mDRICdqMnzekElQagWRp5BpOE23fgYKdwt4582tuHmhp5gIBBgHtfM8qt7tiSTO9BjCFc1JsGuwoDAcMN4oj2SYRo2/u73e/vmJjUdZgPtFXMDhBm1MQ5/pn3+KKNiSiRHhpJBtmUK/S7eetOt2HzNrdpyw738FML3LfPur6T/Fu5ZoP763893/3tdy50k6Yt8HJxxISZ7gsn9HJ/+bXz3OatO5IBYCXyTzKPu57LlX/CM74bUYoRaeH3H5w90H8wd4ye5kuJpkTC8o3VG0qWnI8xNEWIEg2eD7KWpl5EScJIZdPUGYSHD5R3Lj5aTamhCdICbuxxx0Bq5EfkSfEqHbAMCRXPhMc/aU6f80f3v3oP9sKGdHxaHx7M1Ewp/vBeCVEKw5fzHLenrLAxUaJzKboeivbd00SJ/KV1gFnlw566LYpHGE9RoqQpo3B6iWkj8Ik7/zD+Rn/uTrnQvkh7yvPNw6dkFpcBEliFREOerx0yyTF9nWYgIbeNmtrFCbJBfAsWv9XJjTZAvWh5RCdHBlSffOrQAMZECcLH9F6WZmvIA9Mz80+/8PiMV+KkknfyExIlHOYvWunJXOLps/PhNCh8du5S980z+neSfx/s3uv+7uSL3X//3sVu4eIVXi7OmLvM/dlXerm/+mbvTPmnNErJP8k83TUQJVx3jRGl7iLYROERBnycU2YtSnItLdPe/R8mduEDHRKClI+TsIwiLrjuAb/GIYsoMTWA0GG9DGEU7pohE92efenpvPDHlX5hJepm1h1gIAhMJxEPQoBRGCrv2MRESe/ExTXi4T/EQSp6p1Oa+cJyjwfqbJULPBCgkBYICxckhg8UXHv1G+HO6nO3+0Xfu12vfve6Ja+t9iQmHO2IKEGesGd6hJEgI0vSIW3w2/nBHnfD3Y+5Xv2GuV9efq9Dm0O6hJk+Z4nXKK19d4u74NqR7u//Zx/3F187z333lzc66qqIKUqUlq9cn9QXGLMoNktIh+myVo58q90hpKkfyqv6uvTGB8MgiUaJNhKup2K9HVMUsSEN2hDxgR2diuLWnbZUTaPvhLRIk4sOhiltOiFG4GmGRcGUQ3gQZtCIpwoPLooSpUnPvOTzFGpNmGYln0U0Uml5L2W3atUq16tXL9e7d2/X0dFRyntF7pWUa8kba92LS1f7toRM5Jl2CNngmfU9sUEG0nbSzNTnlvj6S3MDXzT3aYa6i6ff0AbRFtAEZRlImxah4wc5STp5a9UgZsjuNDJeiiihqQKX0GQRJcm/l5etcj+7+AheyEEuZNQ3f/Z7T5bWb3zPv7NWjryfct4tnihJ/oVp6Rk5p0EnZEjyU/IPmatBI4PRcCCqOCq9G1GqFLkmDIfQplHSycnwkfABpRkaN8KDD5f5ecKxQBBigB2dKh97bBD0CJV7xs30amDCDZ8wy5OdLGHTsWGbJyAQLPLIDjHICHljNPTU7MX+eeSjz8XJOREjOUh40ukg4NhpUg1DWSEu5InOffHra338pAOO4MXHKWHBh4tgevCJue6BSXPc2Mlz3Fd/epWbOW9pl49YRIkwO3ft9VhBDulg0fY9M3eZJ4w/Pu8W948/+p27oP9I99AT8xxTAhJE0+cs9apt3C+6fpSb+cKrfm0CdQimrFMoZYoSJRaJgi0X6zuIf+fufbnRgxf+IN0IdTQ9rLegLSH4cUNDQF2HBo0SmOPOdAlCG1yIh7DhglXCseiV9kreCMO0ivKqexEswjzkPVPHaGrII1MwdMSQDzQNIrrgGhsW9JI/ykfHQwf98NMLfBjaGiS4lMFfEaIj7MNBA98p6ddqDdcpp5zijjrqKH/9/Oc/L1WUitzLLRcDNX3DlJ32o7alZ75nvqnQMEgJSWboxpQYcbHIOTR8D9gzPZVmGDAMvr8zYb9j9DQvX9P8Z9kh3yhDpSYmSshbvsM8ExMlBkn/7VsX+oFcKP8gMSGR+fUVw9zffucid/Dgkc0qyC8wuuTGMZ4oIf9EgML0qQ/spXUXCZLs4x4TKeKK6zGMs5xnI0rloNXkflnAeeeYZzpNW9Dg2V2UZugA+QDTPnQtbEwjSmlxYYeamY8ib7SENgo/pEtHuGPX3iQ6hFya1iIkSghOBB6ELEt7lURY5gNlJV9oLEKj3Xcr12zyHzMfMSMaPmqePWH6bPrth71udjPmLfUfdfgR449REn4vvP4BTxIRIhgJgf0HPnRnX3mv+/K3L3BTZy/uIgQgSsz/33r/k56sIThk0LAU2RlYlCgpXu6aws0jSky/Qvz63PRQl3xv3bHb1xn1znNsIBK4xevD6Jioa44myDKEq/XUG1MrdL5p7RpMcIuJEpok8pZGcmi3aKakWc0qG/ZFiRJTNnTCIans2LjN3f3QjLzou+V27rnnJkSpT58+3YorK3B3ygV2mlLiOU/rymAja2qONktdxvKGtUbY6zuOy0CbiHdzMmAYNn5m7DX3HfKbNQDNDfiZI0SJnb1oxrgg/bznGfoNvj2FYcDDjt73tu/yMi9L/r20dKWb/OyLneQfg4tX3+xI5F8oF8mD5J8GkyFJCvOIvEPmIkcha6H8C/1V8mxEqRLU2iQMwiOLRNF4+aDwk2cQEpAd1MMINQRH2nSJ4hBRYvSG/yJGRAktA/Ez+isatkj88pOHB6NQ0gcXRj581HzQGgHp4/3uf9zgZsxb5v2FAkF+9+7b7/78q+e5V5avUbLer4TEmnWb/Hx+XC8IBabevvfLAZ2m/hQJi/UhKqVMrYgSJBnBmrbGgzxNmn5kaiiLKMVEQ+WARNGJZRnaQy2JEgvYSYMOI8tA5Dg/KzQMAq6+/dHQqtMz3wjxMjWRZ2iTaWQrL0xPue3du9eNGTPGPfTQQ27//v09lWzhdGiPEFYMz/H0UhgRbSzr2IxSRIlp5TSTRpSY5soj/mnxoLkvMghKC4sdRAkyz3oqLrAoQpRonwqD9p+1Rlt3fJAr/5BjyEdkX5r8wz0mOPiT/EOe8hyGpQyEwV5ytpraJOI3opTVetrcnpEnH0J4dkcMCeuH0ogS02gXDRjjPzji0MXHyHMRohSnlfcOUVIakAEtfs4LU4kbZY21GooHDQBECcNHjDDgY+XjlSqa538987rUkSt+8bd8ZYcnQmjO+PhFunCThupvTrqoC4El/LTnjizmhnTFgoSppnoSJXbV6MwaYRbeRZCziFLW8QB0XvUkSmhlaHtZa/zCMuqZuqEzYs1VnqG95S2yJWwjE6W8stXLjWkypu+5qDcGVXpmqpRnjhyJDesFWc+UZtR246k3BoiksX7TjrRg/tiLeK0cWkQ0f+UYdtaFi/TLCYvfeOrtuqGPFSJKyHMZ7f5Dq5on/5BpsWwiDsk/ZBdyEn9Z8g+ZGBvCa1CaJv9i/+W+G1EqF7E28c85SXzkaYv/BAHTbzFRYjsrnQALsFFrQ4pYSAh5enbuMh9nLYgSaaKV4ONF2OTlW/kv916UKBGvhIHusvv66demEiURotVrN7pjv3uR27FztydOfPxSYyNAPv74Ez9yCzVKpIEbxwOccu4gT67istWbKLH2htFnltH0ZbMRJdYV8Z2Uo8GUZjVrka8wAq/xT76g19S7EaVUWDIt0axy9hEaPeoNDQ6L6fWMGxs2YsN0GIQizbBuM22NkLSNuKcZ4ps47cVOTpA18lCOmTF/uZe5lR7PERMlyGQpLWy8Ron8PjJ1YXKUgeSe7riHz3H5JP+Qd2iFIDsaHIbyD/IUG8k/aZPSiFQcptx3I0rlItYm/vnoIB+vvrkus8SMsGKixBlNCJ+07dvqIGpBlDRH/+7mHZ4scTBb2g65zMIUcCiHKGVFxxRd2loIPnY+8EOHWRR5gXts+sJEUISjrHmvHDk4TkSJcBqNcTzA//z1zX4kFqdfb6IkQpFV9wOHP+k7q2YjSkyr0MmmaSHiOgjf0UCysDzLKF52QeUZI0p56GS76cBN1hXpZPusaWFi4ZulntP8oO3M0pYyJcWi/dhoXV883QepIp1SC+zDfKC5QlaX0j6ipU6TyzFRivOa9p5GlNL8FbWT/EOWiSSJKPG+b98+d80117irrrrK9evXz23ceETrF8o/iBLh08hU0Xxk+TOilIWM2TtID9ux0z4uaQBiooTAYDdNbGjQTL8gBLI6S8JIjR2Hz3vXGiX5YTqEEd45V91X1khf4bPutSRKpAlGfOTskGNr/7IVa/2HD4HCDdw0fSmi5MnVZ9NyaJS+84sbUkdu9SZKlI+RMgQhXvTMiJh2wVULopQ1XZpVz+XaM+0BUaeO0gzaVKYHw8W+TJfQuYWLq8OwrF9hqrTUGWSNTJQWLFjgvvGNb/hr0aL04xHCMvfks3aqUWfsKqXtZdUf+YJkUF/UW2iYcsJ+wlMLQuvkmZ3GuMebUNgow7ectkwAjTga+ay1TWhnyW+40YUpQ9KhraWZZSs6vExMG6Q1AlEiz+Cv6TYNDiE+yLi5c+cmGwOOP/74hAyF8g9iJVmZhkF37IwodQe9Fg/Ljh00IGiI0NRg0AoxpcZHiSDnYhcYAgODZgA3dp9BsNDqQKroSNQZ0nHFnSXTc8zla0TFFB6kSZfi94l89kP8jLzYyiqNktwZiZMeB7cRR1p4+S11Z+0BcVBWFuUyGpVhig8CA06MHDnWIDSMVlUGxYEaX3ZgFwpEhMXHn3zi+t48zh/t/9v+o/1ZPJfd9JAvD2slGKVClLzfz/7O5N2N29zoibPd//Oj3/m4ww6WzpjzWqgX0g2FNsJWeeHOScdoCkM76iY0wl1+hDXblGVHe4mno9jujlAmHyxkprOgU6CeWMDKPSRKaDUR/JxQzJEU1LU6M+64ceYSO4WogzRCz7QKnU5Izqk/jqvAXu06LF+5z+SDvEMEw/oHd/4mAzfIVDgdTF4ZVNBZ0uaVd74LykoYvqHYEL8w5k54sAvtsnZZxXHV+v2kk05KOrdTTz211smVFT9tlXaIYUF32tRZHKFIj+qLtkq9IheytNciUgw6+db4Jjj+gvplqUCakdwlXvKmuBkAor0ibLw5gPaDrMONKTDJFNIUscI9/CbRStFukCfs3FQbyiJbyisyC2IoeaJweetZFbbUne867br66quTtjR79hGyij+IlKbcWH6AXS2MEaVaoNpCcSK4NYfPh8GHyJ1pAwgP71zalUQnrDNx5B93iAydlfzjFjbq0K/8hPe0XRiazlH8IeycURKGz9thFIZLe2braxgXnZMM6u7QLSwXAi50y3pmUXyCcVQmAAAfWUlEQVSaQQsEMYKocoIw7xjWrkCUGD0x8kJQ/P33L/XEiv9bIh3OkpIhv2Ha4a4a1W3oHj/HaybCv76J/YbvaR09ghpBDhmjnUCWGN2jbSFsSJS0Ti6MU0IcUh3a80w8scG/ykhnqDBgwm6hsOOIw5bzDrGHeBE/bUDtmXTo1EKSpHghs2wPV54Uho4rbY0I/uU3747mthFM2LndfPPNjZClJA9oVqQNZ+DHQKeU4XsWURH+hFObzAqPnIL0KAx32n0o/+KwDE7YEKMwahvkOe27IjxtmYXgCqP2Ttg0jZf+o1H+wztTg2km77/eiK9W5rjjjvNE6eSTT06SCOUfcrBW2iQSNKKUwG4PeQjQkdFR0xlp9Jvnn1EGRIpt7tUYaeSl1W5uCN1n5y1LSJLm5psZB505E04nVLM8tF+20dPJIOxrYej40FbxnXDRgRYhYuyYI198LxDAvA60FvmuVZyUY/ny5W7x4vRz2mqVbpF40eag3cRA3LPWGKXFRRtlxyJ/RF1EFhIH7QDZyTEZ5Wi30QzpANOsado4jxA6jpVgSpvBaaWLvON46/W+adOmRJu0dOnn/0mqQWJPyD8jSvWqfUvXEKgAARYNc17Juk3bPFHSkQG1WMBYQfYqDsI6syLTHxUnYAENgQABNDZaKM+UcJaWJghij3VCYNy4cZ4onXnmmUkOIOEQpZ6Sf0aUEujtwRBoXASYutFaip9dcqfXOjAnj7CAJDWrFgJND1ukUfvX8pToxq1Zy5khYAjkIXDllVd6orRmzec7QJF3PSn/jCjl1ZC5GQJ1RCBcAK/1A/oDXrKFsGg2gqTdQyqP7uX+bUMdq8WSNgQMgR5EYNeuXW79+s//n1RJ96T8M6Ik1O3e8giwnoCOupyryBqTWgHHDicWgnKxhbmctQ21ylM14mX9hMrFOg/qo54GgVtOm8Bv2uLsepbB0jYEDIHaIWBEqXbYWswNhgBn+EiDUfTOjikzrY0AOwqLtofQn5Gl1m4XVjpDQAgYURISdm95BNDIcK5ROVe9tR0tXykNUEDquJw2gd9W0e41APyWBUOg4REwotTwVWQZNAQMAUPAEDAEDIF6IWBEqV7IW7qGgCFgCBgChoAh0PAIGFFq+CqyDBoChoAhYAgYAoZAvRAwolQv5C1dQ8AQMAQMAUPAEGh4BIwoNXwVWQYNAUPAEDAEDAFDoF4IGFGqF/KWriFgCBgChoAhYAg0PAJGlBq+iiyDhoAhUCkCk555yQ2fMMvxR6F55qEp8/0/rx88VP7hl8T94BPz3FOzu/75K39MOvqx5926Tdvzki/sdu/4WW7ko8/5AzL5I2Ge+aNVM4aAEOAA1TtGT3P3PTJbVjW7H/jwkONg3OUr17vnXnzDTZvz+Z/W1izROkRsRKkOoFuShoAh0DMIfO9XN/nDJN//YF9ugiee0d/727Vnf66/3XsPuFkLXuvkhz9V5SBKDjQNDaep64DK9Zt2hE4VPe87cNDH96UTz/f/Rk/HRPxnXnpXRfFZoM8RuPiGsa73taMqvq4YPOHzyIIn7M+56r6Kr/Ouvt+VapNBcv7x00//5NtFpX8yDdkZPWmOu3PsM+7m4VPc1bc/6sDn7CtHuNMvvtP94OyB7vgfX5m0bbVx3desfy/OUtO/G1Fq+iq0AhgChkAWAtUmSn1uesh3EL/oO8xt3bHbJ5tGlDjE8munXZN0Jqf2vs3FV3iYKZ3Lr68Y3uW6bdTUpGh0YHRG5AHD3+vQGWJnB2AmMFX0oE6+O/e0hFU/3Ym3Y8O2tKgz7bpLlCDeafmlLJB03BhYQOIggoPvf9o9MPl59/Tsxf6PuxlMtJoxotRqNWrlMQQMgQSBahOll199OxlN02kwtbft/d2+85BGiY7tW2cNSO1swg6IaQuZxa+vTfXPCF6GjonwaJJkGPFjRz7MVI4AGEIEqLv4+umFQzzGTK3GbryLPKSlvmnrTvfu5h2pF/9zSLon/OSqVHeFK/f/JrtLlBgAoAHdsXOPo40Sn8ydY55JsJBdO9yNKLVDLVsZ2w4B1g0wyntv+wdtV/Z5r7zpxj4+z1//8G99vWBHwGPHFNyk6S+5AXdP7nSps7vy1oc72eOPNR+h2X/gkB9J08lBiOhYeIYoPTt3WdJxokHasWtvGNSxZgm/TGOERkQJ4nPo8Ee+g8KfiBJrp3jnIl5G/VwhIZMdd7RcPW0WLV/jMebPp5vNgCtEKc0wJYc7dZRmpDVKc8uzox0RL9qZcs0vL783aQ/EUcnFfxyG5rVV7zoGFnmXvhOm3vL84cZf/bSKMaLUKjVZohwsJuUPXrn48DFPzFyU2LEYNc2gVg0/Qo2a0/xWw67c0RNp0pFVEq4a+W3UOLR+5fmXV1SUxenPH5nmoe5/f8fELnHMmPdq0nZYLI2BVKiNZXUqXSIqYFFuWurYwnar5xf+uNJPb+m9yD0cUYfZJa6V72zypIR4+DZGPPwH/71cM2Sim/DUAgdRW/H2Rh+MUbo61XjNkojSrSOf9n4hG8QposSC8CJ5lZ8t23aFWe2R5xvuOfLnwhCASkypNldJnEXDgFszESXWDEFWsi61gyx37NkYEJpX31znp4uZMs66RJS4Z/mRPRqx0JT7HYdh6/1sRKneNdBD6bOGQR+PyA5ESXZ3Pfhsak4Ih6DnuvuhGV0WrKYG6oYlH+Dad7eWFcP4J19IyF9ZAVvYc3eJ0qHDH7s312z0uPa79ZEuSLGgWW3nxmFPePe+A8cldtUkSuWmRdpMk3DRIZBP2gjvaFpYC4Qda37QgnCJwMx8YXlix5QI/rKIEvazF77uftjrFu+P7wrS/uLS1R4P1mwQnjbNrjqlMWjEU13wzCNKe/d/mGipyDvTIbqIizTASHbh2qcuCdXQortEqVSbq2HWPYbgSD3El6be2GEYu6neCFuu6Y5GKS8t2iX5ySJ+eWFLuXVn6q3c77hUXnrS3YhST6Jd57Q0Gji//2ifk6UrOhIBUWRbJ4JfJKtWReEDRwVcjmEUz+JaM58jgBBetXazq3R0r5jQjKQRpdUdW5K288jUhd77sPEzE7tqTv10Jy2mAGhT4a43ESXWj8ik7XrTtFZMlJjOZFcQI2fi1pX2bWiqTX5YnB3HRx7U4aZplLBTeGmDlW+2geOGdqvehjqnzaWVr5y8ZbW5cuIo16/w7c693DQblShNnPZi0t4qwYOp7zTTne84Lb6etDOi1JNo1zkttnXS8BGuGDoPfQhsZS5lKiVKjBSLGvLT00Tp8Ecfd1mHUjS/reYPLEKT1WmhtVDbeWnZEQ0K63NkF8bR3efupFVNovT2ui1+fZDKyB2C/sxn5Q6JEoQBbY8GJ/hFW5VlsoiStFpKE5LHuiddrDPBDe2w7DhGoJlM0TZXyzIJX2RjfIkQX3rjg13cRFQJHxvO18q72PZPOOLP84dbOUsLuqtRQvtJvpj2vXbIpE6X+hC0bLGbBhtZ0/3d+Y5jbHv63YhSTyNex/SY1+YDmDJrUZILCXLU+6VMOUSJ+Wl26Wi6gbUaF1z3QOriYtZPnXXZPe6MS4b6/NHh8BxeGmmHeRw69lnvh86EcoT+eWZRa9aZHozmWFMjIUh4plBYJ5FmWPNBp6g0ND049bklPh3KydRTuICR6S/55x4LELQDcpeWLy3tonbUIR2p4uS+bEVHyeA7d+9zt9z3VLIwGEwgSEy7ZhElItVCaa2HYb0O7SskDFmJr1q1yvXq1cv17t3bdXSUzmOlaYkosYMHIgcJr1SjpOlr6hoSpLaFJkXlRtuk6T7saFcs0A7bRRomWUSJOLiYGtdzqftFA8YkSTBljrapWhdagdBw0CDfmdocz0Wm/iptc2Ha1XwG06ypKq15o47SjGRc6Ma3XqqeynEHXwyEqWPjtvxrwzafNm2vpN+N27oMEkWUIN+xyZt6u33UEe1mLOfCOCr9jsM46vFsRKkeqNcpTQlbhJsMI4QsASE/uhclShISjDpYwIewhoBARPh42WIdGs7dYLEq0xkIj+vvmuyfedeV9vGh4sUdkkXnLr+6s+sr7bA2doTxwUKw2FZN/l5ZvsZpjcXvBo4Ps+efIVbER9zkkbR7X3NkNwxTU0yxUD7KLAOZIm/4JxxbiUND2uq02YnVXYMQZVG+yk+9gn+eAXummMCPNTxoFtGQQDCwgxymTb0Rp9ZuaKqFNTKUNZ4eSkv/lFNOcUcddZS/fv7zn6d56WRXaVoiSiIvCH9hXsnUG3Ua7+oKiRKZZiROfmnzsbakU6GClyyiRN3QzmizYMv3A766NIpnJ5zswrbE4nrCVetCqxIaTUPS5jigkHQgQXmmO20uL97uuJHvLDkIrriXQ5QWLlnlvx++oawr1BZm+ZH95YOOyCQ2AVSrLhUPGqvQiCgJE3DRpTC0Q9npLrc0Wa34K/2OFb5edyNK9UK+DunSMTAiCAX9/EUr/UFhRbJThCgxcucjYhQdb6smXQ4og6RkHUrGx1bLqTfIBOSQjiVtShANDHnIIxiUDz+UI5yyROCEa2HAlI4Ev1nz9uQFFXYtDEI2rxykSUeK8Ir/ugOcdG5PFlGC8Mbn90DUitTfueeemxClPn36lCx+OWnR7sgDOzZVV9QBhAPtl4gS+KD94sKdC2IS24kIZmWSdg2RgZTztyKkGROKrLCyzyJK2vUmokSnHZo7SqxRgtzHUyTdeQ+10WE+eNZUfimi1J02F6dZrXfqng4/zVRClNLiie0qWaOEfKUdp136XikLGKf5SbPjWw+NiBJxcFxGeOlbQWaE9jzzPZF2HlEq5zsO81TvZyNK9a6BJkq/CFFCa0VnE398KiYdMqP7MZPnyqrTnQ+tSEcbBipnMfdrb633HzMEJsswMobAZBk6QtzjM3Ky/LO9Pi0+SCrlzctLVpxF7EsRJWlCQs1KGC9TTZQ1iyiFfst93rt3rxszZox76KGH3P79+X8bUm7cYA2u4RVqA0SUKJsu+dU7d9mFRIn1P3kXO+gIxzlJef5wC7+RWhGlcrHrjv8iRKmebS6rbJxbpbpGdsWX2gJEKnbjXWGz4s+yr4QoZcWFvTT5aKpCLREDB7Sb8SAuKy4RpVpMvWWl2ej2RpQavYYaKH9FiBIdBCP5PEPHq79hiP0hdGpJlMY9eWShIge2ZV2MmhCOWQY3OsSiJkurxFQd/6NUK1OKKDHVhqDPM6yNqAVRykuzu25oAJiSYju3pjfCTkJEKSSImsIKp2rVCYoooQVVp1iNO/mTKUqUqFPWR+nSCB9tguyK7GBVutW8FyFKjdjmWGum+tQ0UniXG999aK9nuZeLZTWJElpNteFYi8yglDyyfizW8qflWUSJ8hJneGFHXGjTQ3ue5ZanUUpLrxnsjCg1Qy01SB6LECWmCtgmnmdYRI0KOM3wEdaSKDFVRBoctpZ30YmFU5RhXhEI5RAlwsZaJc7aIR9M1dTKlCJKTJOdct7g3OQhFc1GlMLFxFqjVA2ixGJ5pmyzLrCkTnVB0rL8Yh9OYxUlSoo77x4u5s6t3Co7FiFKjdjmdOZYfFq64GmkqTflKb7rQFIGX7Hhe9CAYdTEObFzl3fwYG1l2qV4uKe5Y4fWvtWMEaVWq9EalqcIUWJBdKkzjehQ2LGWZugAakmUWLhNGvpD07Q8lLKrhChJq8R0G4b5fy3QLJVepe6liBJb2ClL2lot0oQoMk3abEQpxKuaRCmMN+1ZC/01smYKkGmdIkZEiZ2pS95Y64k47TReo8Q7uwt1seYPfxyoKTvWYdXDFCFKjdjmRDKyBniNTpTYJEIb4KLtpBlkqvyUK1/D+PJ2vYX+qv3MLtl+/fr567rrriukGatmHowoVRPNFo+rCFHiGHw+yCz1K6p33BGYaQY3TnAtx9BBlZpCUnx0/nRgjHw0pSK38M622ixTCVEiLmmVtI4lPuI/K71K7UsRJdTwTB8wZZNm1PHXgigtWLDAfeMb3/DXokVdtyGn5acSu54gSrSj+x6Z7ds1bYPzloY8MN2/Q4iLrEETUVJnpntMlOi0Q1NqMXfot9bPRYhSd9ocu3WpTzQ/RTAtWl4tgmanWpppZKKEtkjTr+wWzjM6EBZtUKh1DcPom1f7q/Setr4pTKfc5wEDBiSbP/r27Vtu8G77N6LUbQhbNwI+JoS+Lv7Ti85X79zTOnvO5OEDY25cI2riumfckZOb4/8YChGkY0EY6owa3FhLQtrYp6XH1n7SY1QtAUC6aG8QcvGfP0KC6NBYfxMSNsKidtZiYMVFHlh8y9ZcLsI+/PSCTjgUGcXjh3wSPmuNVohFuc+c1RPWDdoghKPsOK+KdRGhgdiSH4SsztKi3OroWYvANCnlVl2G4St9PumkkxLBd+qpp1YaTclwtSZK7JLUlmfqVrsbIQTqgMGX/32LdxaGmRdRou1BXNk1SnyNTJQYdHBcgtqXBgAcQCo7vtdw0TplrrTNcWwHmHCx4aIaBlmgONm8kGbyiBL1TP0SR7mmu2uUWLDNuiPSRm7GOMf5YTeijsnQ3w7FfvwxKXc/7mUmcjO+JBtJN3YL37ujtYrzxPsJJ5yQyIsdOzr/h1ya/2rbGVGqNqItFJ/UrBIkaXeERNoHyjH4EiDhHY1SnkGNzEdPWmg7lCYdNkQrLS3iQ3DKv+6ERXPEf5bFBtIiIUP+iF9pnXPVfe6tdzprvNTpyU98Z5RWxGiqJE9jVSSe2A9CM85T2nsaSUU4QoDxr7oCD+xZT6Z4StVdnKe896uvvjoRfDfffHOe1265qVxpa5SoMzSRWrRNOVmUGtvFmke0Gax1EwkjHGuOmNYNDcSSKWZhyh0CBLmK27GIkg5WJU38axpbxwPQtmm3utTxUU7ZcY+PbQjzVa3n8C+Q1EbS7pQtNpW0Oe3qIg3WzlXDiHxxGG6WiYkS54Wx45WBBVp28kO9lGuQMYSlzZVrkF/hmjgOvmURPwuxGeSgBUbzhh+1kbhumKoNDaQP8pt3SYPJ+ro8f7gRXzXM9u3bE1kxaNCgakRZdhxGlMqGzAIURYDD9ug8OIyRjzLcsloqjj37PvR/OIqQDXci5YXjwyQ9/qiUkW7cGaWFJW7O9iAM5IUPvJYG4pYnlGuZdqm4Eb5Me6I9qrWhrpYvX+4WL84nzpXkA40F2kLIC50DhCNse9r1FnccWe8iSnQOIl7ySyfEAZ15BpLG2UUKo3u4oYHRPn86TVtMMyJKClvqnjWdmhZ3Pe3KbXNa6weB766B7AjHNE214o+JUvjfewpfZPcqW/TRyNAu0UKKQDMlX64JBzDKQ9qdAQ9p0uY56wiig/zBL/Zq26QvLWZaPJXYpQ3Kyi0n/idOnOiJ0jHHHFP1o0SK5seIUlGkzJ8h0E0EtKAynFbsZpQWPAWBcHErI33WXYQGjSGCH/IBYcu6pGlSZ6KdipAlOkt29xC2qKGTZ8qWYylIn7+HKWpElNBsMgApdRUZJBRNu1H8MSXMlDXYxdq7SvJI3TEFVaoe+PsXpv61Lkp/24LmDgKCFidr2i7M14LFb/m8h6QDrQ+DunINA0jIEhpL0kezxVID2iRT7FkH+pIOmk4IFCSfc61kWFcEiarWxeCzGubss8/2RGnkyJHViK6iOIwoVQSbBTIEykcAocro1EztEdBhj2kaQqZMOJahFJlAyxNrMyEs1TDsNAzXwJWKk7yS5zg/pcK1krs0O5CWahoR4WrG2ehxQTT5RprBHH/88e64445zH31UbAdpLcpkRKkWqFqchoBzyfqFcATJMyr3rG28BpwhYAikI8AaHNPGpmPTyrb8afbu3bvrWkQjSnWF3xJvZQRY9IkqPL74f7g0bQZTAWgZyrmK/ulqK+NsZTMEDAFDoJYIGFGqJboWtyFQBgJsr421T0XejSyVAbJ5NQQMAUOgTASMKJUJmHk3BGqFAJokzkIq5yqyiLRW+bV4DQFDwBBoBwSMKLVDLVsZDQFDwBAwBAwBQ6AiBIwoVQSbBTIEDAFDwBAwBAyBdkDAiFI71LKV0RAwBAwBQ8AQMAQqQsCIUkWwWSBDwBAwBAwBQ8AQaAcEjCi1Qy1bGQ0BQ8AQMAQMAUOgIgSMKFUEmwUyBAwBQ8AQMAQMgXZAwIhSO9SyldEQMAQMAUPAEDAEKkLAiFJFsFkgQ8AQMAQMAUPAEGgHBIwotUMtWxkNAUPAEDAEDAFDoCIEjChVBJsFMgQMAUPAEDAEDIF2QMCIUjvUspXREDAEDAFDwBAwBCpCwIhSBmyPPvqoO+aYY9zgwYMzfJi1IWAIGAKGgCFgCLQ6AkaUMmr4wIEDbvz48e6oo45yK1euzPBl1oaAIWAIGAKGgCHQyggYUSpRu6effrobMGBACV/mbAgYAoaAIWAIGAKtiIARpRK1euGFF7p+/fqV8GXOhoAhYAgYAoaAIdCKCBhRKlGrRpRKAGTOhoAhYAgYAoZACyNgRKlE5RpRKgGQORsChoAhYAgYAi2MgBGlEpXbp08f16tXrxK+zNkQMAQMAUPAEDAEWhEBI0olanXcuHHu6KOPdo899pg7fPhwCd/mbAgYAoaAIWAIGAKthIARpRK1yTEBHBHA9dRTT5Xwbc6GgCFgCBgChoAh0EoIGFEqUZvDhg3zB08uWbKkhE9zNgQMAUPAEDAEDIFWQ8CIUokaveiiixwLus0YAoaAIWAIGAKGQPshYESpRJ3brrcSAJmzIWAIGAKGgCHQwggYUSpRuUaUSgBkzoaAIWAIGAKGQAsjYESpROUaUSoBkDkbAoaAIWAIGAItjIARpRKV+8Mf/tANGjSohC9zNgQMAUPAEDAEDIFWRMCIUkatbtu2zV133XX+WIA1a9Zk+DJrQ8AQMAQMAUPAEGhlBIwoZdTu9OnT3fe//303bdq0DB9mbQgYAoaAIWAIGAKtjoARpVavYSufIWAIGAKGgCFgCFSMgBGliqGzgIaAIWAIGAKGgCHQ6ggYUWr1GrbyGQKGgCFgCBgChkDFCBhRqhg6C2gIGAKGgCFgCBgCrY6AEaVWr2ErnyFgCBgChoAhYAhUjIARpYqhs4CGgCFgCBgChoAh0OoIGFFq9Rq28hkChoAhYAgYAoZAxQgYUaoYOgtoCBgChoAhYAgYAq2OgBGlVq9hK58hYAgYAoaAIWAIVIyAEaWKobOAhoAhYAgYAoaAIdDqCBhRavUatvIZAoaAIWAIGAKGQMUIGFGqGDoLaAgYAoaAIWAIGAKtjoARpVavYSufIWAIGAKGgCFgCFSMgBGliqGzgIaAIWAIGAKGgCHQ6ggYUWr1GrbyGQKGgCFgCBgChkDFCHSbKHV0dLijjz7anXvuuW7fvn0VZ8QCGgKGgCFgCBgChoAh0GgIdJso/elPf3Jz5sxxxx57rBs5cmSjlc/yYwgYAoaAIWAIGAKGQMUIdJsoKeURI0a4E088Ua92NwQMAUPAEDAEDAFDoOkRqBpRmjx5sjvhhBOaHhArgCFgCBgChoAhYAgYAkLAiJKQsLshYAgYAoaAIWAIGAIRAkaUIkDs1RAwBAwBQ8AQMAQMASFQNaL05JNPui9+8YuK1+6GgCFgCBgChoAhYAg0PQJVI0rvvPOOO+qoo9yNN97odu3a1fTAWAEMAUPAEDAEDAFDwBCoGlECypNPPtmTpT59+hiyhoAhYAgYAoaAIWAIND0CVSNKy5cv9yTp0UcfdZ988knTA2MFMAQMAUPAEDAEDAFDoGpE6fHHH/eHThqkhoAhYAgYAoaAIWAItAoCVSNKdo5SqzQJK4chYAgYAoaAIWAICAEjSkLC7oaAIWAIGAKGgCFgCEQIGFGKALFXQ8AQMAQMAUPAEDAEhEDViNIdd9zhd70pYrsbAoaAIWAIGAKGgCHQ7Ah0mygdPnzYjRo1yh1zzDFu7NixzY6H5d8QMAQMAUPAEDAEDIEEgW4TpY0bN7pvfOMbbvjw4e7gwYNJxPZgCBgChoAhYAgYAoZAsyPQbaLU7ABY/g0BQ8AQMAQMAUPAEMhCwIhSFjJmbwgYAoaAIWAIGAJtj4ARpbZvAgaAIWAIGAKGgCFgCGQhYEQpCxmzNwQMAUPAEDAEDIG2R8CIUts3AQPAEDAEDAFDwBAwBLIQMKKUhYzZGwKGgCFgCBgChkDbI2BEqe2bgAFgCBgChoAhYAgYAlkIGFHKQsbsDQFDwBAwBAwBQ6DtETCi1PZNwAAwBAwBQ8AQMAQMgSwEjChlIWP2hoAhYAgYAoaAIdD2CBhRavsmYAAYAoaAIWAIGAKGQBYCRpSykDF7Q8AQMAQMAUPAEGh7BIwotX0TMAAMAUPAEDAEDAFDIAsBI0pZyJi9IWAIGAKGgCFgCLQ9AkaU2r4JGACGgCFgCBgChoAhkIWAEaUsZMzeEDAEDAFDwBAwBNoeASNKbd8EDABDwBAwBAwBQ8AQyELAiFIWMmZvCBgChoAhYAgYAm2PgBGltm8CBoAhYAgYAoaAIWAIZCFgRCkLGbM3BAwBQ8AQMAQMgbZHwIhS2zcBA8AQMAQMAUPAEDAEshAwopSFjNkbAoaAIWAIGAKGQNsjYESp7ZuAAWAIGAKGgCFgCBgCWQgYUcpCxuwNAUPAEDAEDAFDoO0RMKLU9k3AADAEDAFDwBAwBAyBLASMKGUhY/aGgCFgCBgChoAh0PYIGFFq+yZgABgChoAhYAgYAoZAFgJGlLKQMXtDwBAwBAwBQ8AQaHsEjCi1fRMwAAwBQ8AQMAQMAUMgC4H/H6xcp+xZo5AZAAAAAElFTkSuQmCC;" vertex="1" parent="_5cwRUb4suJWPlaSnPq4-109">
          <mxGeometry x="50" y="220" width="218.22" height="178" as="geometry" />
        </mxCell>
        <mxCell id="_5cwRUb4suJWPlaSnPq4-114" value="" style="endArrow=classic;html=1;exitX=0;exitY=0.5;exitDx=0;exitDy=0;entryX=1;entryY=0.5;entryDx=0;entryDy=0;" parent="1" source="_5cwRUb4suJWPlaSnPq4-112" edge="1" target="_5cwRUb4suJWPlaSnPq4-99">
          <mxGeometry width="50" height="50" relative="1" as="geometry">
            <mxPoint x="320" y="1250" as="sourcePoint" />
            <mxPoint x="320" y="1255" as="targetPoint" />
          </mxGeometry>
        </mxCell>
        <mxCell id="HKDZfd3m-U1hOn4cxar5-3" value="是" style="text;html=1;align=center;verticalAlign=middle;resizable=0;points=[];autosize=1;" vertex="1" parent="1">
          <mxGeometry x="335" y="1350" width="30" height="20" as="geometry" />
        </mxCell>
        <mxCell id="HKDZfd3m-U1hOn4cxar5-4" value="否" style="text;html=1;align=center;verticalAlign=middle;resizable=0;points=[];autosize=1;" vertex="1" parent="1">
          <mxGeometry x="175" y="1340" width="30" height="20" as="geometry" />
        </mxCell>
      </root>
    </mxGraphModel>
  </diagram>
</mxfile>
